STARTFONT 2.1
FONT -Monotype-Nimrod-Bold-I-Normal--36-360-75-75-P-248-iso8859-5
SIZE 36 75 75
FONTBOUNDINGBOX 58 47 -7 -9

STARTPROPERTIES 24
FOUNDRY "Monotype"
FAMILY_NAME "Nimrod"
WEIGHT_NAME "Bold"
SLANT "I"
SETWIDTH_NAME "Normal"
ADD_STYLE_NAME ""
PIXEL_SIZE 36
POINT_SIZE 360
RESOLUTION_X 75
RESOLUTION_Y 75
SPACING "P"
AVERAGE_WIDTH 248
CHARSET_REGISTRY "iso8859"
CHARSET_ENCODING "5"
FACE_NAME "Nimrod Bold Inclined ISO Latin Cyrillic"
_DEC_DEVICE_FONTNAMES "PS=nimrod-bin-latcyrillic"
COPYRIGHT "Copyright (c) 1993 Monotype Typography Ltd."
CAP_HEIGHT 34
X_HEIGHT 25
WEIGHT 10
QUAD_WIDTH 28
DEFAULT_CHAR 160
FONT_DESCENT 9
FONT_ASCENT 38
ENDPROPERTIES

CHARS 191

STARTCHAR space
ENCODING 32
SWIDTH 250 0
DWIDTH 10 0
BBX 0 0 0 0
BITMAP
ENDCHAR

STARTCHAR exclam
ENCODING 33
SWIDTH 375 0
DWIDTH 14 0
BBX 12 29 1 0
BITMAP
01E0
01F0
03F0
03F0
03F0
03F0
03E0
03E0
07C0
07C0
0780
0780
0700
0700
0600
0E00
0C00
0C00
0C00
1800
0000
0000
0000
7800
FC00
FC00
FC00
FC00
7800
ENDCHAR

STARTCHAR quotedbl
ENCODING 34
SWIDTH 552 0
DWIDTH 21 0
BBX 15 13 6 13
BITMAP
180C
3C1E
7C3E
7C3E
FC7C
F87C
F878
F078
E070
E070
C060
C060
8040
ENDCHAR

STARTCHAR numbersign
ENCODING 35
SWIDTH 667 0
DWIDTH 25 0
BBX 22 26 2 -1
BITMAP
01C070
018060
038060
0380E0
0380E0
0380E0
0300C0
FFFFFC
FFFFFC
FFFFFC
0601C0
060180
0E0380
0E0380
0E0380
0C0300
FFFFFC
FFFFFC
FFFFFC
1C0700
180700
180600
380E00
380E00
380E00
300C00
ENDCHAR

STARTCHAR dollar
ENCODING 36
SWIDTH 510 0
DWIDTH 19 0
BBX 21 34 1 -5
BITMAP
000300
000300
001F00
007FC0
01E6E0
01C670
038C78
078C78
078CF8
078CF8
07D870
07F800
07F800
03F800
01FC00
01FE00
00FF00
003F00
007F80
006FC0
386FC0
7867C0
FCC3C0
F8C3C0
F8C3C0
F0C780
718F00
3DBE00
1FFC00
03C000
030000
030000
030000
060000
ENDCHAR

STARTCHAR percent
ENCODING 37
SWIDTH 1000 0
DWIDTH 38 0
BBX 28 28 7 -1
BITMAP
07E001C0
1F700380
3E780300
3C780600
7C780C00
7CF81800
F8F83800
F8F83000
F9F06000
F1F0C000
F1E18000
F3E38000
77C30000
3F060FC0
000C3EE0
00187CF0
003078F0
0030F8F0
0060F9F0
00C1F1F0
0181F1F0
0301F3E0
0301E3E0
0601E3C0
0C01E7C0
1800EF80
30007E00
70000000
ENDCHAR

STARTCHAR ampersand
ENCODING 38
SWIDTH 927 0
DWIDTH 35 0
BBX 33 29 2 0
BITMAP
0000FC0000
0007FF0000
000F878000
001F03C000
001F03C000
003E03C000
003E03C000
003E078000
003F0F8000
003F3E0000
003FFC0000
003FF00000
007F000000
03FF83FF80
0FDF83FF80
3F0FC0FC00
3E0FC07800
7E0FC07000
FC07E06000
FC07F0C000
FC03F18000
FC03FB0000
FC01FE0200
FE00FC0300
7F007E0600
3F81FF1E00
3FFFFFFC00
0FFF1FF000
03F807E000
ENDCHAR

STARTCHAR quoteright
ENCODING 39
SWIDTH 323 0
DWIDTH 12 0
BBX 8 12 6 17
BITMAP
1C
3E
7F
7F
7F
3F
1E
0E
1C
78
E0
80
ENDCHAR

STARTCHAR parenleft
ENCODING 40
SWIDTH 385 0
DWIDTH 15 0
BBX 16 36 2 -7
BITMAP
0007
001E
003C
0078
00F0
01E0
03E0
07C0
0F80
1F80
1F00
3F00
3F00
7E00
7E00
7E00
FC00
FC00
FC00
FC00
FC00
F800
F800
F800
F800
7800
7800
7800
3C00
3C00
3C00
1C00
0E00
0E00
0600
0300
ENDCHAR

STARTCHAR parenright
ENCODING 41
SWIDTH 385 0
DWIDTH 15 0
BBX 16 36 -2 -7
BITMAP
00E0
0060
0070
0038
0038
003C
003C
001E
001E
001E
001F
001F
001F
001F
001F
003F
003F
003F
003F
003F
007E
007E
007E
00FC
00FC
01F8
01F0
03F0
03E0
07C0
0F80
0F00
1C00
3800
7000
C000
ENDCHAR

STARTCHAR asterisk
ENCODING 42
SWIDTH 552 0
DWIDTH 21 0
BBX 19 18 5 11
BITMAP
00F800
00F800
20F800
78F800
FCF000
FCE000
7E4380
3F0FC0
00FFE0
01DFE0
1F43C0
7F7000
7E7800
7E7C00
3C7C00
187C00
007C00
001000
ENDCHAR

STARTCHAR plus
ENCODING 43
SWIDTH 667 0
DWIDTH 25 0
BBX 21 21 2 2
BITMAP
007000
007000
007000
007000
007000
007000
007000
007000
007000
FFFFF8
FFFFF8
FFFFF8
007000
007000
007000
007000
007000
007000
007000
007000
007000
ENDCHAR

STARTCHAR comma
ENCODING 44
SWIDTH 323 0
DWIDTH 12 0
BBX 8 11 -1 -5
BITMAP
1E
3E
7F
7F
7F
3E
0E
0C
38
F0
E0
ENDCHAR

STARTCHAR minus
ENCODING 45
SWIDTH 667 0
DWIDTH 25 0
BBX 20 3 3 11
BITMAP
FFFFF0
FFFFF0
FFFFF0
ENDCHAR

STARTCHAR period
ENCODING 46
SWIDTH 323 0
DWIDTH 12 0
BBX 6 6 1 0
BITMAP
78
FC
FC
FC
FC
78
ENDCHAR

STARTCHAR slash
ENCODING 47
SWIDTH 552 0
DWIDTH 21 0
BBX 19 32 1 -1
BITMAP
0000E0
0001C0
0001C0
000380
000380
000700
000700
000E00
000E00
001C00
001C00
003800
003800
007000
007000
00E000
00E000
01C000
01C000
038000
038000
070000
070000
0E0000
0E0000
1C0000
1C0000
380000
380000
700000
700000
E00000
ENDCHAR

STARTCHAR zero
ENCODING 48
SWIDTH 562 0
DWIDTH 21 0
BBX 20 27 3 0
BITMAP
003F00
00FF80
03E3C0
07C1E0
07C1E0
0F81F0
1F81F0
1F01F0
3F01F0
3F01F0
3F03F0
7E03F0
7E03F0
7E07E0
7C07E0
FC07E0
FC07E0
FC0FC0
F80FC0
F80F80
F81F80
F81F00
783E00
783E00
3C7C00
1FF000
0FC000
ENDCHAR

STARTCHAR one
ENCODING 49
SWIDTH 562 0
DWIDTH 21 0
BBX 17 27 2 0
BITMAP
000180
000780
00FF00
03FF00
007F00
003F00
003E00
003E00
007E00
007E00
007C00
007C00
00FC00
00FC00
00F800
00F800
01F800
01F000
01F000
03F000
03F000
03E000
03E000
07E000
0FE000
7FFE00
FFFE00
ENDCHAR

STARTCHAR two
ENCODING 50
SWIDTH 562 0
DWIDTH 21 0
BBX 22 27 0 0
BITMAP
001FC0
007FF0
00E1F8
01C0F8
01C0FC
03E0FC
03F0FC
03F0FC
01F0FC
01E1F8
0003F8
0003F0
0007E0
000FC0
001F00
003E00
007800
00F000
01C000
038030
070020
0E0060
1FFFE0
3FFFE0
7FFFC0
7FFFC0
FFFFC0
ENDCHAR

STARTCHAR three
ENCODING 51
SWIDTH 562 0
DWIDTH 21 0
BBX 21 27 1 0
BITMAP
007F80
01FFE0
03C3F0
0781F8
07C0F8
07C0F8
07C0F8
03C1F8
0001F8
0003F0
0007F0
000FC0
07F900
03FE00
000F80
0007C0
0007E0
0007E0
7807E0
7C07E0
FC07E0
F80FC0
F00FC0
701F80
387F00
1FFE00
07F000
ENDCHAR

STARTCHAR four
ENCODING 52
SWIDTH 562 0
DWIDTH 21 0
BBX 21 27 2 0
BITMAP
000038
0000F0
0001F0
0003F0
0007E0
000FE0
001BE0
003FE0
0077C0
00E7C0
01C7C0
038FC0
070F80
0E0F80
1C0F80
381F80
701F00
401F00
FFFFE0
FFFFE0
003E00
003E00
007E00
007C00
00FE00
07FFC0
07FF80
ENDCHAR

STARTCHAR five
ENCODING 53
SWIDTH 562 0
DWIDTH 21 0
BBX 22 27 1 0
BITMAP
00FFFC
01FFF8
01FFF8
01FFF0
03FFF0
030000
030000
060000
060000
067E00
0DFF80
0F1FC0
1E07C0
0007E0
0007E0
0007E0
0007E0
0007E0
7807E0
7C0FC0
FC0FC0
F80F80
F01F80
703F00
787E00
3FFC00
0FE000
ENDCHAR

STARTCHAR six
ENCODING 54
SWIDTH 562 0
DWIDTH 21 0
BBX 20 27 3 0
BITMAP
001F80
007FE0
01F1F0
03E1F0
07C1F0
0F81F0
0F80E0
1F0000
1F0000
3F0000
3E7C00
7EFF00
7FFF80
7F1F80
FE0FC0
FC0FC0
FC0FC0
F80FC0
F80FC0
F80FC0
F81F80
F81F80
781F00
783E00
3C7C00
1FF800
07E000
ENDCHAR

STARTCHAR seven
ENCODING 55
SWIDTH 562 0
DWIDTH 21 0
BBX 19 27 5 0
BITMAP
1FFFE0
1FFFE0
3FFFE0
3FFFC0
3FFF80
700300
600600
600E00
C01C00
003800
007800
00F000
00E000
01E000
03C000
07C000
078000
0F8000
1F0000
1F0000
3F0000
3E0000
3E0000
7E0000
7E0000
3C0000
380000
ENDCHAR

STARTCHAR eight
ENCODING 56
SWIDTH 562 0
DWIDTH 21 0
BBX 21 27 2 0
BITMAP
003F00
01FFE0
03F1F0
07E0F8
0FC0F8
0FC0F8
0F80F8
0F80F8
0781F0
0783F0
03C7E0
007C80
07FF00
1F8780
3F07C0
7F03E0
7E03E0
7E03E0
FC07E0
FC07E0
FC07E0
FC0FC0
7C0FC0
7C1F80
3E3F00
1FFE00
07F000
ENDCHAR

STARTCHAR nine
ENCODING 57
SWIDTH 562 0
DWIDTH 21 0
BBX 20 27 2 0
BITMAP
00FE00
01FF80
07E3C0
0FC1E0
0F81E0
1F81F0
1F81F0
1F01F0
3F01F0
3F01F0
3F03F0
3F03F0
3F07E0
1F8FE0
1FFFE0
0FF7E0
03E7C0
0007C0
000F80
000F80
781F00
F81F00
F83E00
F87C00
F8F800
7FE000
1F8000
ENDCHAR

STARTCHAR colon
ENCODING 58
SWIDTH 323 0
DWIDTH 12 0
BBX 10 21 1 0
BITMAP
0780
0FC0
0FC0
0FC0
0FC0
0780
0000
0000
0000
0000
0000
0000
0000
0000
0000
7800
FC00
FC00
FC00
FC00
7800
ENDCHAR

STARTCHAR semicolon
ENCODING 59
SWIDTH 323 0
DWIDTH 12 0
BBX 12 26 -1 -5
BITMAP
01E0
03F0
03F0
03F0
03F0
01E0
0000
0000
0000
0000
0000
0000
0000
0000
0800
3E00
7F00
7F00
7F00
3F00
1E00
0E00
1C00
3800
F000
C000
ENDCHAR

STARTCHAR less
ENCODING 60
SWIDTH 667 0
DWIDTH 25 0
BBX 20 19 3 3
BITMAP
000030
0000F0
0007F0
001FC0
00FF00
03FC00
0FE000
7F8000
FC0000
E00000
FC0000
7F0000
1FE000
03F800
00FE00
003FC0
0007F0
0001F0
000030
ENDCHAR

STARTCHAR equal
ENCODING 61
SWIDTH 667 0
DWIDTH 25 0
BBX 20 12 3 6
BITMAP
FFFFF0
FFFFF0
FFFFF0
000000
000000
000000
000000
000000
000000
FFFFF0
FFFFF0
FFFFF0
ENDCHAR

STARTCHAR greater
ENCODING 62
SWIDTH 667 0
DWIDTH 25 0
BBX 20 19 3 3
BITMAP
800000
F00000
FC0000
7F0000
1FE000
03F800
00FF00
001FC0
0007F0
0000F0
0003F0
001FC0
007F00
03FC00
0FE000
7F8000
FE0000
F00000
C00000
ENDCHAR

STARTCHAR question
ENCODING 63
SWIDTH 458 0
DWIDTH 17 0
BBX 17 29 2 0
BITMAP
03F000
0FFE00
1E3F00
3E1F00
3E1F80
3E1F80
3E1F80
1C3F80
007F00
007E00
00FE00
01F800
03F000
07C000
070000
0E0000
0C0000
0C0000
0C0000
180000
000000
000000
000000
780000
FC0000
FC0000
FC0000
FC0000
780000
ENDCHAR

STARTCHAR at
ENCODING 64
SWIDTH 833 0
DWIDTH 32 0
BBX 31 33 0 -8
BITMAP
0007FC00
003C0700
00E000C0
01800060
07000030
0E000010
0C000008
18000008
3803DF0C
30072E04
701E2E04
601C3E04
603C3E04
E0783C04
C0783C04
C0F87C04
C0F07808
C0F07808
C1F0F808
C1F1F810
C1F17030
41F2F020
61FCF042
60F8F982
20707E04
30000004
18000008
08000010
04000020
030000C0
01800180
00700E00
000FF000
ENDCHAR

STARTCHAR A
ENCODING 65
SWIDTH 802 0
DWIDTH 30 0
BBX 31 29 -2 0
BITMAP
00000600
00000F00
00001F00
00001F00
00003F00
00003F00
00007F00
0000FF80
0000DF80
0001DF80
00039F80
00031F80
00070F80
000E0FC0
000C0FC0
001C0FC0
00380FC0
00300FC0
007FFFC0
00FFFFE0
00C007E0
01C007E0
038007E0
038007E0
070003E0
0F0003F0
1F8007F0
FFE03FFE
FFE03FFE
ENDCHAR

STARTCHAR B
ENCODING 66
SWIDTH 802 0
DWIDTH 30 0
BBX 30 29 -1 0
BITMAP
03FFFFC0
03FFFFF0
003F83F8
003F01FC
007F00FC
007F00FC
007E00FC
007E00FC
00FE01FC
00FC01F8
00FC03F8
00FC07F0
01FC1FC0
01FFF800
01FFFF00
01F80FC0
03F807E0
03F803F0
03F001F8
03F001F8
07F001F8
07F001F8
07E003F8
07E003F8
0FE007F0
0FE00FF0
1FE03FE0
FFFFFF80
FFFFFC00
ENDCHAR

STARTCHAR C
ENCODING 67
SWIDTH 740 0
DWIDTH 28 0
BBX 27 29 3 0
BITMAP
0007FC00
003FFF00
00FE0FC0
01FC03E0
03F001E0
07F001E0
0FE001E0
1FC000C0
1FC000C0
3F8000C0
3F8000C0
7F000000
7F000000
FF000000
FE000000
FE000000
FE000000
FE000000
FE000000
FE000000
FE000380
7F000700
7F000600
7F800E00
3F803C00
1FE07800
0FFFF000
03FFC000
00FF0000
ENDCHAR

STARTCHAR D
ENCODING 68
SWIDTH 854 0
DWIDTH 32 0
BBX 33 29 0 0
BITMAP
01FFFF8000
03FFFFF000
003F81F800
003F00FC00
003F007E00
003F003F00
007F003F00
007E003F00
007E003F80
007E003F80
00FE003F80
00FC003F80
00FC003F80
01FC003F80
01FC003F80
01F8007F00
01F8007F00
03F8007F00
03F800FE00
03F000FE00
03F001FE00
07F001FC00
07F003F800
07E003F800
07E007F000
0FE01FE000
0FE07FC000
7FFFFF0000
FFFFF80000
ENDCHAR

STARTCHAR E
ENCODING 69
SWIDTH 740 0
DWIDTH 28 0
BBX 30 29 0 0
BITMAP
03FFFFFC
03FFFFF8
007F00F8
007F0078
007F0078
007E0030
007E0030
00FE0030
00FC0C70
00FC0C00
00FC1C00
01FC3800
01F8F800
01FFF800
01FFF800
03F8F000
03F07000
03F07000
03F07000
07F06060
07E060E0
07E000C0
07E001C0
0FE003C0
0FC00780
0FC00F80
1FE03F80
FFFFFF80
FFFFFF00
ENDCHAR

STARTCHAR F
ENCODING 70
SWIDTH 729 0
DWIDTH 28 0
BBX 30 29 0 0
BITMAP
03FFFFFC
03FFFFFC
007F01F8
007F0078
007E0038
007E0038
007E0038
00FE0038
00FC0E30
00FC0C00
00FC0C00
01FC1C00
01F87800
01FFF800
01FFF800
03F8F800
03F07000
03F07000
03F07000
07F07000
07E06000
07E00000
0FE00000
0FE00000
0FC00000
0FC00000
1FC00000
FFFF0000
FFFE0000
ENDCHAR

STARTCHAR G
ENCODING 71
SWIDTH 854 0
DWIDTH 32 0
BBX 30 29 3 0
BITMAP
0007FE00
003FFF80
007E07E0
01FC03F0
03F001F0
07F000F0
0FE000F0
1FC00060
1FC00060
3F800060
3F800000
7F000000
7F000000
7F000000
FF000000
FE007FFC
FE00FFF8
FE000FE0
FE000FC0
FE000FC0
7E001FC0
7E001F80
7E001F80
3F003F80
3F003F80
1F807F00
0FC1FE00
03FFF000
00FF8000
ENDCHAR

STARTCHAR H
ENCODING 72
SWIDTH 865 0
DWIDTH 33 0
BBX 37 29 -1 0
BITMAP
01FFF9FFF8
01FFF9FFF8
003F801FC0
003F803F80
003F003F80
003F003F00
007F003F00
007F003F00
007E007F00
007E007E00
00FE007E00
00FE007E00
00FC00FE00
00FFFFFC00
01FFFFFC00
01FC01FC00
01F801FC00
01F801F800
03F801F800
03F003F800
03F003F800
03F003F000
07F003F000
07E007F000
07E007F000
07E007E000
0FE00FE000
7FFE7FFE00
FFFC7FFC00
ENDCHAR

STARTCHAR I
ENCODING 73
SWIDTH 479 0
DWIDTH 18 0
BBX 21 29 0 0
BITMAP
03FFF8
03FFF8
003F80
003F80
003F00
003F00
007F00
007E00
007E00
007E00
00FE00
00FC00
00FC00
00FC00
01FC00
01F800
01F800
01F800
03F800
03F000
03F000
03F000
07F000
07E000
07E000
0FE000
0FE000
FFFE00
FFFE00
ENDCHAR

STARTCHAR J
ENCODING 74
SWIDTH 656 0
DWIDTH 25 0
BBX 29 29 0 0
BITMAP
0007FFF8
0007FFF0
00003F00
00003F00
00007F00
00007E00
00007E00
00007E00
0000FE00
0000FC00
0000FC00
0000FC00
0001FC00
0001F800
0001F800
0001F800
0003F000
1C03F000
3E03F000
7F07F000
7F07E000
FF07E000
FE07E000
F80FC000
700FC000
781F8000
3C3F0000
1FFE0000
07F00000
ENDCHAR

STARTCHAR K
ENCODING 75
SWIDTH 823 0
DWIDTH 31 0
BBX 35 29 0 0
BITMAP
03FFF3FFE0
03FFE7FFC0
007F00FE00
007F007800
007F00F000
007E01E000
007E03C000
00FE070000
00FE0E0000
00FC3C0000
00FC700000
01FCF80000
01F9F80000
01FBF80000
01FFFC0000
03FEFC0000
03F8FC0000
03F07E0000
03F07E0000
07F07E0000
07E03F0000
07E03F0000
0FE03F0000
0FE01F8000
0FC01F8000
0FC01FC000
1FC01FE000
FFFCFFFC00
FFF9FFF800
ENDCHAR

STARTCHAR L
ENCODING 76
SWIDTH 698 0
DWIDTH 27 0
BBX 26 29 0 0
BITMAP
03FFF800
03FFF800
007F0000
007F0000
007F0000
007E0000
007E0000
00FE0000
00FE0000
00FC0000
00FC0000
01FC0000
01FC0000
01F80000
01F80000
03F80000
03F00000
03F00000
03F00000
07F000C0
07E00180
07E00180
07E00380
0FE00780
0FC00F00
0FC01F00
1FC0FF00
FFFFFE00
FFFFFE00
ENDCHAR

STARTCHAR M
ENCODING 77
SWIDTH 1031 0
DWIDTH 39 0
BBX 43 29 0 0
BITMAP
03FFC003FFE0
03FFC003FFC0
0037C0077E00
0037C006FC00
0077C00EFC00
0077C00DFC00
0067E01DF800
0067E039F800
00E7E031F800
00E7E073F800
00C7E063F000
00C7E0E3F000
01C7E1C3F000
01C7E1C7F000
0187E387E000
0183E307E000
0383E70FE000
0303F60FE000
0303F60FC000
0303FC0FC000
0703F81FC000
0603F81FC000
0603F01F8000
0603F01F8000
0E03E03F8000
1E03E03F8000
3F01C03F8000
FFE183FFF000
FFE183FFF000
ENDCHAR

STARTCHAR N
ENCODING 78
SWIDTH 833 0
DWIDTH 32 0
BBX 35 29 0 0
BITMAP
03FF007FE0
07FF00FFE0
007F801F80
007F800E00
007FC00E00
006FC00C00
006FC00C00
0067E00C00
00E7E01C00
00C7F01800
00C3F01800
00C3F81800
01C1F83800
0181FC3000
0180FC3000
0180FE3000
03807E7000
03007F6000
03003F6000
03003F6000
07003FE000
06001FC000
06001FC000
06000FC000
0E000F8000
1E00078000
3F00078000
FFE0038000
FFE0030000
ENDCHAR

STARTCHAR O
ENCODING 79
SWIDTH 823 0
DWIDTH 31 0
BBX 28 29 3 0
BITMAP
000FF800
003FFE00
00FC1F80
01F007C0
07F007E0
0FE003E0
0FC003F0
1FC003F0
3F8003F0
3F8003F0
7F0003F0
7F0007F0
7F0007F0
FF0007F0
FE0007F0
FE000FF0
FE000FE0
FE000FE0
FC000FE0
FC001FC0
FC001FC0
FC003F80
7C003F00
7C007F00
3E00FE00
3E01F800
1F83F000
07FFC000
01FF0000
ENDCHAR

STARTCHAR P
ENCODING 80
SWIDTH 771 0
DWIDTH 29 0
BBX 30 29 0 0
BITMAP
03FFFF80
03FFFFE0
007F03F0
007F01F8
007F01FC
007E00FC
007E00FC
00FE00FC
00FE01FC
00FC01FC
00FC01FC
01FC03F8
01F807F8
01F81FF0
01FFFFC0
03FFFF00
03F00000
03F00000
03F00000
07F00000
07E00000
07E00000
07E00000
0FE00000
0FC00000
0FC00000
1FC00000
FFFE0000
FFFE0000
ENDCHAR

STARTCHAR Q
ENCODING 81
SWIDTH 823 0
DWIDTH 31 0
BBX 29 33 3 -4
BITMAP
000FF800
003FFE00
00FC1F80
01F007C0
07E007E0
0FE003E0
0FC003F0
1FC003F0
3F8003F0
3F8003F0
7F0003F0
7F0007F0
7F0007F0
FF0007F0
FE0007F0
FE000FF0
FE7C0FE0
FEFF0FE0
FDFF8FE0
FF0F9FC0
FE07DFC0
FE03DF80
FC03FF00
7C03FF00
7E01FE00
3E01F800
1F83F000
07FFF000
01FF7800
00007C00
00003E00
00001FF8
000007F0
ENDCHAR

STARTCHAR R
ENCODING 82
SWIDTH 823 0
DWIDTH 31 0
BBX 30 29 0 0
BITMAP
01FFFFC0
03FFFFF0
003F83F8
003F01F8
003F01FC
003F00FC
007F00FC
007E00FC
007E01FC
00FE01FC
00FC03F8
00FC07F8
00FC1FE0
01FFFB80
01FFFC00
01F87E00
01F83F00
03F83F00
03F01F80
03F01F80
03F01F80
07F01FC0
07E00FC0
07E00FC0
07E00FC0
0FE00FE0
0FE007E0
7FFE07FC
FFFE07F8
ENDCHAR

STARTCHAR S
ENCODING 83
SWIDTH 667 0
DWIDTH 25 0
BBX 25 29 1 0
BITMAP
003FF000
00FFFE00
01F03F80
03E01F00
07C00F00
07C00F00
0FC00600
0FC00600
0FE00E00
0FF00000
07FC0000
07FE0000
03FF8000
01FFE000
00FFF000
003FF800
000FFC00
0003FC00
0001FE00
3000FE00
30007E00
70007E00
70007C00
78007C00
7800F800
FC01F800
FF03F000
FFFFC000
07FF0000
ENDCHAR

STARTCHAR T
ENCODING 84
SWIDTH 750 0
DWIDTH 29 0
BBX 28 29 3 0
BITMAP
0FFFFFF0
1FFFFFE0
1F9FE3E0
1E0FC1E0
3C1FC1E0
381FC0E0
381F80C0
701F80C0
603F80C0
603F01C0
C03F0180
003F0000
007F0000
007E0000
007E0000
007E0000
00FE0000
00FC0000
00FC0000
00FC0000
01FC0000
01F80000
01F80000
01F80000
03F80000
03F00000
07F80000
7FFF8000
7FFF8000
ENDCHAR

STARTCHAR U
ENCODING 85
SWIDTH 792 0
DWIDTH 30 0
BBX 29 29 5 0
BITMAP
7FFE3FF8
7FFE3FF8
0FE007E0
0FE003C0
0FC00380
0FC00380
0FC00300
1FC00300
1F800700
1F800700
1F800600
3F800600
3F000E00
3F000C00
7F000C00
7F000C00
7E001C00
7E001800
FE001800
FC003800
FC003800
FC003000
FC007000
FC006000
7C00E000
7E01C000
3F878000
1FFF0000
07FC0000
ENDCHAR

STARTCHAR V
ENCODING 86
SWIDTH 771 0
DWIDTH 29 0
BBX 30 29 4 0
BITMAP
7FFC0FFC
FFF81FFC
1FC003E0
0FC003C0
0FC00380
0FC00300
0FC00700
07C00600
07C00E00
07E01C00
07E01800
07E03800
07E03000
03E07000
03E0E000
03F0C000
03F1C000
03F18000
03F38000
03F70000
01F60000
01FE0000
01FC0000
01FC0000
01F80000
01F00000
00F00000
00E00000
00E00000
ENDCHAR

STARTCHAR W
ENCODING 87
SWIDTH 1104 0
DWIDTH 42 0
BBX 41 29 5 0
BITMAP
7FF3FFF0FF80
FFF3FFE1FF00
1FC07F003C00
1F803F003800
1F803F003800
0F803F007000
0F803F006000
0FC03F00E000
0FC03F01C000
0FC07F01C000
0FC0FF038000
0FC0DF838000
0FC1DF870000
0FC19F860000
07C39F8E0000
07C71F8C0000
07C61F9C0000
07EE1FB80000
07EC0FB80000
07EC0FB00000
07F80FE00000
07F80FE00000
07F00FC00000
03E00FC00000
03E00F800000
03C00F800000
03C00F000000
03800E000000
030006000000
ENDCHAR

STARTCHAR X
ENCODING 88
SWIDTH 823 0
DWIDTH 31 0
BBX 37 29 -2 0
BITMAP
01FFFC3FF8
01FFF87FF8
001FC00FC0
001FC00F80
000FC00F00
000FE01E00
0007E03800
0007F07000
0003F0E000
0003FBC000
0001FB8000
0001FF0000
0000FE0000
0000FC0000
00007E0000
0000FE0000
0001FF0000
0007BF0000
000F3F8000
001E1F8000
00381FC000
00700FC000
00E00FC000
01C007E000
03C007E000
0FC007F000
1FC007F800
FFF83FFF00
FFF87FFE00
ENDCHAR

STARTCHAR Y
ENCODING 89
SWIDTH 771 0
DWIDTH 29 0
BBX 29 29 5 0
BITMAP
FFF87FF8
FFF0FFF8
3F800F80
1F800F00
1FC00E00
0FC00E00
0FC01C00
07E03800
07E07000
07F07000
03F0E000
03F9C000
01FB8000
01FF0000
00FF0000
00FE0000
00FE0000
00FC0000
00FC0000
00FC0000
01FC0000
01F80000
01F80000
03F80000
03F80000
03F00000
07F00000
7FFF0000
7FFF0000
ENDCHAR

STARTCHAR Z
ENCODING 90
SWIDTH 719 0
DWIDTH 27 0
BBX 29 29 1 0
BITMAP
00FFFFF8
00FFF7F8
00FC0FF0
01F00FE0
01E01FC0
01C03F80
01807F80
0380FF00
0301FE00
0301FC00
0003F800
0007F800
000FF000
001FE000
001FC000
003F8000
007F0000
00FF0000
01FE0000
01FC0180
03F80380
07F00300
0FF00700
1FE00F00
3FC01E00
3F803E00
7F01FE00
FFFFFE00
FFFFFC00
ENDCHAR

STARTCHAR bracketleft
ENCODING 91
SWIDTH 396 0
DWIDTH 15 0
BBX 19 34 0 -5
BITMAP
007FE0
007FC0
00FC00
00F800
00F800
01F800
01F800
01F000
01F000
03F000
03F000
03E000
03E000
07E000
07C000
07C000
0FC000
0FC000
0F8000
0F8000
1F8000
1F8000
1F0000
1F0000
3F0000
3F0000
3E0000
3E0000
7E0000
7C0000
7C0000
FC0000
FFC000
FFC000
ENDCHAR

STARTCHAR backslash
ENCODING 92
SWIDTH 552 0
DWIDTH 21 0
BBX 19 32 1 -1
BITMAP
E00000
700000
700000
380000
380000
1C0000
1C0000
0E0000
0E0000
070000
070000
038000
038000
01C000
01C000
00E000
00E000
007000
007000
003800
003800
001C00
001C00
000E00
000E00
000700
000700
000380
000380
0001C0
0001C0
0000E0
ENDCHAR

STARTCHAR bracketright
ENCODING 93
SWIDTH 396 0
DWIDTH 15 0
BBX 19 34 -3 -5
BITMAP
007FE0
007FC0
0007C0
0007C0
000FC0
000F80
000F80
001F80
001F80
001F00
001F00
003F00
003F00
003E00
003E00
007E00
007C00
007C00
00FC00
00FC00
00F800
00F800
01F800
01F800
01F000
01F000
03F000
03E000
03E000
03E000
07E000
07C000
7FC000
FFC000
ENDCHAR

STARTCHAR asciicircum
ENCODING 94
SWIDTH 573 0
DWIDTH 22 0
BBX 17 14 4 12
BITMAP
018000
01C000
03C000
03E000
076000
067000
0E3800
1C3800
1C1C00
381C00
380E00
700E00
600700
E00380
ENDCHAR

STARTCHAR underscore
ENCODING 95
SWIDTH 500 0
DWIDTH 19 0
BBX 19 2 0 -8
BITMAP
FFFFE0
FFFFE0
ENDCHAR

STARTCHAR quoteleft
ENCODING 96
SWIDTH 323 0
DWIDTH 12 0
BBX 8 12 5 17
BITMAP
01
07
1C
38
70
78
FC
FE
FE
FE
7C
18
ENDCHAR

STARTCHAR a
ENCODING 97
SWIDTH 667 0
DWIDTH 25 0
BBX 23 21 1 0
BITMAP
00F804
03FC7C
07FEFC
0FE778
1FC3F8
1F81F8
3F01F8
3F01F0
7E01F0
7E03F0
7E03E0
FC03E0
FC07E0
FC07E0
FC07C0
FC0FC6
FC1FCC
7E7F98
7FEFF0
3FCFE0
1F0780
ENDCHAR

STARTCHAR b
ENCODING 98
SWIDTH 635 0
DWIDTH 24 0
BBX 22 29 2 0
BITMAP
0FF800
0FF800
01F800
01F000
01F000
03F000
03E000
03E000
07E3E0
07EFF0
07DFF8
07F9F8
0FE0FC
0FC0FC
0F80FC
1F80FC
1F80FC
1F00FC
1F01F8
3F01F8
3E01F8
3E03F0
7E03F0
7E07E0
7C07C0
7E0F80
F71F00
C7FE00
81F000
ENDCHAR

STARTCHAR c
ENCODING 99
SWIDTH 510 0
DWIDTH 19 0
BBX 19 21 1 0
BITMAP
003E00
01FF80
07E3C0
0F83E0
1F83E0
1F03E0
3E01C0
3E0000
7E0000
7C0000
7C0000
FC0000
FC0000
FC0000
FC0000
FC0000
7C0780
7E0E00
3FFC00
1FF000
07C000
ENDCHAR

STARTCHAR d
ENCODING 100
SWIDTH 667 0
DWIDTH 25 0
BBX 25 29 1 0
BITMAP
0000FF80
0001FF00
00003F00
00003F00
00003F00
00003E00
00007E00
00007E00
00F87C00
03FC7C00
07FEFC00
0FE37800
1FC3F800
1F81F800
3F01F800
3F01F000
7E01F000
7E03F000
7E03E000
FC03E000
FC07E000
FC07E000
FC07C000
FC0FC600
FC1FCC00
7E7FD800
7FEFF000
3FCFE000
1F07C000
ENDCHAR

STARTCHAR e
ENCODING 101
SWIDTH 500 0
DWIDTH 19 0
BBX 18 21 1 0
BITMAP
007E00
01FF80
07C7C0
0F87C0
1F07C0
1F07C0
3E0FC0
7E0F80
7E1F00
7C3E00
FC7C00
FDF000
FF8000
FC0000
FC0000
FC0000
FC0700
7E1E00
3FF800
3FF000
0FC000
ENDCHAR

STARTCHAR f
ENCODING 102
SWIDTH 406 0
DWIDTH 15 0
BBX 29 36 -7 -7
BITMAP
000007E0
00001FF0
000078F8
0000F8F8
0000F070
0001F000
0003F000
0003E000
0003E000
003FFE00
003FFC00
0007C000
0007C000
000FC000
000FC000
000F8000
000F8000
000F8000
001F8000
001F0000
001F0000
001F0000
003F0000
003E0000
003E0000
003E0000
003C0000
007C0000
007C0000
00780000
00F80000
70F00000
78E00000
FDC00000
7F800000
3E000000
ENDCHAR

STARTCHAR g
ENCODING 103
SWIDTH 625 0
DWIDTH 24 0
BBX 25 28 -1 -7
BITMAP
001F8380
00FFFF80
01F8F780
03F07800
07E07C00
07E07C00
07C07C00
07C0FC00
07C0FC00
07C1F800
03E3F000
01FFE000
079F8000
0E000000
1C000000
3E000000
3FFF8000
1FFFE000
1FFFF000
07FFF000
3E3FF000
7800F000
F000F000
F000E000
F801C000
FC078000
7FFF0000
0FF00000
ENDCHAR

STARTCHAR h
ENCODING 104
SWIDTH 677 0
DWIDTH 26 0
BBX 24 29 1 0
BITMAP
07FC00
07FC00
01F800
01F800
01F800
01F000
01F000
03F000
03F0F8
03E3FC
03E7FC
07EE7C
07DC7C
07F0FC
0FE0FC
0FC0F8
0F80F8
0F81F8
1F81F0
1F01F0
1F03F0
3F03E0
3F03E0
3E07E3
3E07C6
7E07CC
7C07F8
7C07F0
FC03C0
ENDCHAR

STARTCHAR i
ENCODING 105
SWIDTH 396 0
DWIDTH 15 0
BBX 11 29 3 0
BITMAP
0380
07E0
07E0
07E0
07E0
0180
0000
0000
1FC0
FFC0
1FC0
0F80
0F80
1F80
1F00
1F00
3F00
3F00
3E00
7E00
7E00
7C00
7C00
FC60
FCC0
F980
FF00
FE00
7800
ENDCHAR

STARTCHAR j
ENCODING 106
SWIDTH 396 0
DWIDTH 15 0
BBX 19 36 -5 -7
BITMAP
000380
0007E0
0007E0
0007E0
0007E0
000180
000000
000000
001FE0
007FC0
003FC0
000FC0
000FC0
000F80
000F80
001F80
001F80
001F00
001F00
003F00
003F00
003E00
003E00
007E00
007E00
007C00
007C00
00FC00
00FC00
00F800
00F800
F0F000
F9F000
F9E000
7F8000
3F0000
ENDCHAR

STARTCHAR k
ENCODING 107
SWIDTH 646 0
DWIDTH 25 0
BBX 23 29 2 0
BITMAP
0FF800
0FF800
01F800
01F000
01F000
03F000
03F000
03E000
07E078
07E1FC
07C3FE
07C73C
0FCE1C
0FCC00
0F9800
1FB000
1FB000
1F6E00
1FFF00
3F8F80
3F0F80
3E0F80
7E0F80
7E1F80
7C1F1C
7C1F30
FC1FF0
F81FC0
F80780
ENDCHAR

STARTCHAR l
ENCODING 108
SWIDTH 396 0
DWIDTH 15 0
BBX 13 29 3 0
BITMAP
1FF8
1FF0
03F0
03E0
03E0
07E0
07E0
07C0
07C0
0FC0
0F80
0F80
1F80
1F80
1F00
1F00
3F00
3E00
3E00
7E00
7E00
7C00
7C00
FC60
F8C0
F980
FF00
FE00
7800
ENDCHAR

STARTCHAR m
ENCODING 109
SWIDTH 948 0
DWIDTH 36 0
BBX 34 21 1 0
BITMAP
0FE0E01C00
3FE3F87F00
0FE7F8FF00
07CFF9DF00
07D8FB1F00
0FD1FE1F00
0FE1FC3F00
0FC1F83E00
0F81F03E00
1F83F07E00
1F03F07C00
1F03E07C00
3F07E0FC00
3F07E0F800
3E07C0F800
3E07C1F8C0
7E0FC1F180
7C0FC1F300
7C0F81FE00
FC0F81FC00
FC1F80F000
ENDCHAR

STARTCHAR n
ENCODING 110
SWIDTH 677 0
DWIDTH 26 0
BBX 24 21 1 0
BITMAP
0FE0F8
3FE3FC
07E7FC
07CE7C
07DC7C
07D0FC
0FE0FC
0FC0F8
0F81F8
0F81F8
1F81F0
1F03F0
1F03F0
3F03E0
3F03E0
3E07E3
3E07E6
7E07CC
7C07F8
7C07F0
FC03C0
ENDCHAR

STARTCHAR o
ENCODING 111
SWIDTH 594 0
DWIDTH 23 0
BBX 20 21 1 0
BITMAP
00FE00
03FF80
07C3C0
1F83E0
1F01E0
3F01F0
7F01F0
7E01F0
7E03F0
FC03F0
FC03F0
FC03F0
FC07F0
F807E0
F807E0
F80FC0
780F80
7C1F00
3C3E00
1FFC00
07E000
ENDCHAR

STARTCHAR p
ENCODING 112
SWIDTH 646 0
DWIDTH 25 0
BBX 27 28 -3 -7
BITMAP
007F1F00
03FF7F80
00FEFFC0
007FCFC0
007F07E0
007E07E0
007C07E0
00FC07E0
00FC07E0
00F807E0
00F80FC0
01F80FC0
01F00FC0
01F01F80
03F01F80
03F03F00
03F87F00
03ECFE00
07EFFC00
07C7F800
07C3E000
0FC00000
0FC00000
0F800000
0F800000
1F800000
FFF80000
FFF80000
ENDCHAR

STARTCHAR q
ENCODING 113
SWIDTH 625 0
DWIDTH 24 0
BBX 22 28 1 -7
BITMAP
007E04
01FF8C
03E1DC
07C1F8
0F80F8
1F81F8
3F01F8
3F01F0
7E01F0
7E03F0
7E03E0
FC03E0
FC07E0
FC07E0
FC07C0
FC0FC0
FC1FC0
7E7FC0
7FEF80
3FDF80
1F1F80
001F00
001F00
003F00
003F00
007F00
03FFC0
07FFC0
ENDCHAR

STARTCHAR r
ENCODING 114
SWIDTH 552 0
DWIDTH 21 0
BBX 20 21 1 0
BITMAP
1FC1E0
7FC3F0
0FC7F0
0FCFF0
0FD9F0
0FB0E0
0FF000
1FE000
1FC000
1F8000
1F0000
3F0000
3F0000
3E0000
3E0000
7E0000
7C0000
7C0000
FC0000
FC0000
F80000
ENDCHAR

STARTCHAR s
ENCODING 115
SWIDTH 500 0
DWIDTH 19 0
BBX 18 21 1 0
BITMAP
00FC00
03FF00
0F8780
0F07C0
1F07C0
1F0380
1F8000
1FC000
0FF000
07F800
03FC00
01FE00
00FF00
007F00
703F00
F01F00
F81F00
F81E00
7C3C00
3FF800
0FC000
ENDCHAR

STARTCHAR t
ENCODING 116
SWIDTH 406 0
DWIDTH 15 0
BBX 13 27 2 0
BITMAP
0030
0060
0060
00E0
01E0
03C0
0FC0
FFF8
FFF8
0F80
1F80
1F80
1F00
1F00
3F00
3E00
3E00
7E00
7E00
7C00
7C00
FC70
F860
F9C0
FF80
FF00
7C00
ENDCHAR

STARTCHAR u
ENCODING 117
SWIDTH 677 0
DWIDTH 26 0
BBX 22 21 3 0
BITMAP
1FC0FC
7FC0F8
1F81F8
0F81F0
1F81F0
1F03F0
1F03F0
3F03E0
3E07E0
3E07E0
7E07C0
7E07C0
7C0FC0
7C1F80
FC3F80
F87F8C
F8EF18
FFDF30
FF9FE0
7E1FC0
380F00
ENDCHAR

STARTCHAR v
ENCODING 118
SWIDTH 562 0
DWIDTH 21 0
BBX 19 21 2 0
BITMAP
1FC380
FFC7C0
1FC7E0
0F83E0
0F83E0
1F81E0
1F80E0
1F00E0
3F00C0
3F00C0
3E00C0
3E0180
7E0180
7C0380
7C0300
7C0600
7C0E00
7E1C00
3FF800
1FF000
078000
ENDCHAR

STARTCHAR w
ENCODING 119
SWIDTH 865 0
DWIDTH 33 0
BBX 29 21 3 0
BITMAP
1FC0F8F0
7FC1F9F0
1F81F9F8
0F81F0F8
1F81F078
1F83F038
1F03E038
3F03E030
3F07E030
3E07E030
7E07C030
7E0FC060
7C0FC060
FC0FC0C0
FC1F80C0
F81B8180
F8378380
F867C700
FFC7FE00
7F83FC00
1E01F000
ENDCHAR

STARTCHAR x
ENCODING 120
SWIDTH 625 0
DWIDTH 24 0
BBX 24 21 0 0
BITMAP
01E01E
07F07F
0FF8FF
0CF8EF
18F98E
18FD00
007F00
007E00
007E00
003E00
003E00
003F00
007F00
006F00
00DF00
019F86
738F8C
FF0FCC
FE07F8
FC07F0
7801C0
ENDCHAR

STARTCHAR y
ENCODING 121
SWIDTH 552 0
DWIDTH 21 0
BBX 22 28 -2 -7
BITMAP
01C030
03F078
07F07C
07F07C
0CF83C
0CF83C
18F81C
00F818
00FC18
007C38
007C30
007C30
007C60
007CC0
007CC0
007D80
007F80
003F00
003E00
003C00
003800
003800
007000
F0E000
F9C000
FF8000
FE0000
7C0000
ENDCHAR

STARTCHAR z
ENCODING 122
SWIDTH 542 0
DWIDTH 21 0
BBX 21 21 0 0
BITMAP
01E038
07FFF0
0FFFE0
0FFE60
1FFDC0
180380
100700
000E00
001C00
003800
00F000
01E000
038000
070000
0E0000
1C0060
3BF8C0
37FFC0
7FFF80
7FFF80
E07E00
ENDCHAR

STARTCHAR braceleft
ENCODING 123
SWIDTH 396 0
DWIDTH 15 0
BBX 15 33 5 -5
BITMAP
000E
0038
0070
00E0
01E0
03C0
03C0
03C0
03C0
03C0
03C0
0380
0780
0700
0E00
1800
E000
7000
1800
1C00
1E00
1E00
1E00
3C00
3C00
7C00
7800
F800
F000
F000
F000
7000
3E00
ENDCHAR

STARTCHAR bar
ENCODING 124
SWIDTH 542 0
DWIDTH 21 0
BBX 3 32 9 -1
BITMAP
E0
E0
E0
E0
E0
E0
E0
E0
E0
E0
E0
E0
E0
E0
E0
E0
E0
E0
E0
E0
E0
E0
E0
E0
E0
E0
E0
E0
E0
E0
E0
E0
ENDCHAR

STARTCHAR braceright
ENCODING 125
SWIDTH 396 0
DWIDTH 15 0
BBX 15 33 1 -5
BITMAP
00F0
0038
001C
001E
001E
001E
003E
003C
007C
0078
00F8
00F0
00F0
0070
0070
0038
0006
0038
0060
01C0
03C0
03C0
0780
0780
0780
0780
0780
0780
0780
0F00
0E00
1C00
F000
ENDCHAR

STARTCHAR asciitilde
ENCODING 126
SWIDTH 667 0
DWIDTH 25 0
BBX 20 6 3 9
BITMAP
1E0010
7FC030
FFF020
C1FFE0
803FC0
800780
ENDCHAR

STARTCHAR space
ENCODING 160
SWIDTH 250 0
DWIDTH 12 0
BBX 0 0 0 0
BITMAP
ENDCHAR

STARTCHAR afii10023
ENCODING 161
SWIDTH 740 0
DWIDTH 28 0
BBX 30 36 0 0
BITMAP
000781E0
000FC3F0
000FC3F0
000FC3F0
000380E0
00000000
00000000
01FFFFFC
03FFFFFC
003F80F8
003F0078
003F0038
007F0038
007E0030
007E0030
007E0E30
00FE0C00
00FC0C00
00FC1C00
00FC7C00
01FFF800
01FFF800
01F8F800
03F87800
03F87000
03F03000
03F03060
07F07060
07F000E0
07E000C0
07E001C0
0FE003C0
0FE00F80
0FE03F80
FFFFFF80
FFFFFF80
ENDCHAR

STARTCHAR afii10051
ENCODING 162
SWIDTH 896 0
DWIDTH 34 0
BBX 30 29 3 0
BITMAP
1FFFFFE0
3FFFFFE0
3E1F87C0
3C1F83C0
783F81C0
703F81C0
603F0180
C03F0180
007F0000
007E0000
007E1FC0
007EFFF0
00FFFFF8
00FFC7F8
00FF03FC
00FC01FC
01FC01FC
01F801FC
01F801FC
01F801FC
03F803FC
03F003FC
03F003F8
03F007F8
07F007F0
07E02FE0
0FF0FFE0
7FFE7F80
7FFC3F00
ENDCHAR

STARTCHAR afii10052
ENCODING 163
SWIDTH 719 0
DWIDTH 27 0
BBX 31 37 0 0
BITMAP
00000700
00000F80
00001F80
00003F00
0000FC00
00004000
00000000
00000000
03FFFFFE
03FFFFFE
007F00FE
007F007C
007F003C
007E003C
007E003C
00FE0018
00FC0038
00FC0038
00FC0000
01FC0000
01F80000
01F80000
01F80000
03F80000
03F00000
03F00000
03F00000
07F00000
07E00000
07E00000
07E00000
0FE00000
0FC00000
0FC00000
1FC00000
FFFC0000
FFFC0000
ENDCHAR

STARTCHAR afii10053
ENCODING 164
SWIDTH 740 0
DWIDTH 28 0
BBX 27 29 3 0
BITMAP
000FFC00
003FFF00
00FE07C0
01F803E0
07F001E0
07E001E0
0FE001E0
1FC000C0
3F8000C0
3F8000C0
7F8000C0
7F000000
7F000000
FFFF8000
FFFF0000
FE000000
FE000000
FE000000
FE000000
FE000000
FE000380
7F000700
7F000E00
3F000E00
3F803C00
1FE0F800
0FFFF000
03FFC000
00FE0000
ENDCHAR

STARTCHAR afii10054
ENCODING 165
SWIDTH 667 0
DWIDTH 25 0
BBX 25 29 0 0
BITMAP
003FF000
00FFFE00
01F03F80
03E01F00
07C00F00
07C00F00
0FC00600
0FC00600
0FE00E00
0FF00000
07F80000
07FE0000
03FF8000
01FFE000
00FFF000
003FF800
000FFC00
0003FC00
0001FE00
3000FE00
30007E00
70007E00
70007C00
78007C00
7800F800
FC01F800
FF03F000
FFFFC000
07FF0000
ENDCHAR

STARTCHAR afii10055
ENCODING 166
SWIDTH 479 0
DWIDTH 18 0
BBX 21 29 0 0
BITMAP
03FFF8
03FFF8
003F80
003F80
003F00
003F00
007F00
007E00
007E00
007E00
00FE00
00FC00
00FC00
00FC00
01FC00
01F800
01F800
01F800
03F800
03F000
03F000
03F000
07F000
07E000
07E000
0FE000
0FE000
FFFE00
FFFE00
ENDCHAR

STARTCHAR afii10056
ENCODING 167
SWIDTH 479 0
DWIDTH 18 0
BBX 22 36 0 0
BITMAP
007878
00FCFC
00FCFC
00FCFC
007838
000000
000000
03FFF8
03FFF0
003F80
003F00
003F00
007F00
007E00
007E00
007E00
00FE00
00FC00
00FC00
00FC00
01FC00
01F800
01F800
01F800
03F800
03F000
03F000
03F000
07F000
07E000
07E000
07E000
0FE000
0FE000
FFFE00
FFFE00
ENDCHAR

STARTCHAR afii10057
ENCODING 168
SWIDTH 656 0
DWIDTH 25 0
BBX 29 29 0 0
BITMAP
0007FFF8
0007FFF0
00003F00
00003F00
00007F00
00007E00
00007E00
00007E00
0000FE00
0000FC00
0000FC00
0000FC00
0001FC00
0001F800
0001F800
0001F800
0003F000
1C03F000
3E03F000
7F07F000
7F07E000
FF07E000
FE07E000
F80FC000
700FC000
781F8000
3C3F0000
1FFE0000
07F00000
ENDCHAR

STARTCHAR afii10058
ENCODING 169
SWIDTH 1219 0
DWIDTH 46 0
BBX 44 30 0 -1
BITMAP
001FFFFFF800
001FFFFFF000
0003E03F8000
0003C03F0000
0003C03F0000
0003807F0000
0003807F0000
0003807E0000
0003007E0000
000700FE0000
000700FE0000
000600FC0000
000601FC0000
000E01FFFE00
000C01FFFF80
000C01F81FE0
001C03F807E0
001803F807F0
003803F003F0
003803F003F0
003007F003F0
007007F003F0
006007E007F0
00E007E007F0
F8C00FE00FE0
FFC00FE01FC0
FF801FE07F80
FF80FFFFFF00
FF00FFFFF800
7C0000000000
ENDCHAR

STARTCHAR afii10059
ENCODING 170
SWIDTH 1198 0
DWIDTH 46 0
BBX 44 29 0 0
BITMAP
01FFF3FFF000
03FFF3FFF000
003F807F0000
003F007F0000
003F007E0000
007F007E0000
007F007E0000
007E00FE0000
007E00FC0000
00FE00FC0000
00FC00FC0000
00FC01FC0000
00FC01F80000
01FFFFFFFC00
01FFFFFFFF80
01F803F81FC0
01F803F00FE0
03F803F007E0
03F007F007F0
03F007F007F0
07F007E007F0
07F007E007F0
07E00FE007F0
07E00FC00FE0
0FE00FC01FE0
0FE00FC03FC0
1FE01FC0FF80
7FFCFFFFFE00
FFFCFFFFF800
ENDCHAR

STARTCHAR afii10060
ENCODING 171
SWIDTH 917 0
DWIDTH 35 0
BBX 29 29 3 0
BITMAP
1FFFFFE0
3FFFFFC0
3E1F87C0
7C1F83C0
783F81C0
703F0180
E03F0180
C03F0180
007F0000
007E0000
007E0780
00FE7FE0
00FEFFF0
00FFFFF0
00FF87F0
01FC03F0
01FC03F0
01F803F0
01F807F0
03F807E0
03F007E0
03F00FE0
03F00FE0
07F00FC0
07E00FC0
07E01FC0
0FF01FC0
7FFCFFF8
7FFDFFF8
ENDCHAR

STARTCHAR afii10061
ENCODING 172
SWIDTH 833 0
DWIDTH 32 0
BBX 35 36 0 0
BITMAP
000000F000
000001F000
000003F000
000007E000
00001F0000
0000000000
0000000000
03FFF00F80
03FFF01FC0
007F003FE0
007F007FE0
007E0067E0
007E00E7C0
007E00C380
00FE01C000
00FC038000
00FC038000
00FC070000
01FC0E0000
01F81E0000
01F8700000
03FFF80000
03FFFC0000
03F0FE0000
03F07E0000
07F03F0000
07F03F0000
07E01F8000
07E01F8000
0FE01F8000
0FE00FC000
0FC00FC000
0FC00FE000
1FC007F000
FFFC07FC00
FFF807FC00
ENDCHAR

STARTCHAR hyphen
ENCODING 173
SWIDTH 323 0
DWIDTH 12 0
BBX 10 4 1 8
BITMAP
7FC0
7FC0
FFC0
FF80
ENDCHAR

STARTCHAR afii10062
ENCODING 174
SWIDTH 781 0
DWIDTH 30 0
BBX 32 38 3 0
BITMAP
000C0300
001E0780
001E0780
001E0780
001E0700
000FFF00
0001F800
00000000
00000000
3FFE1FFF
3FFC1FFE
0FE000F0
07E000E0
07E001C0
07F001C0
07F00380
03F00700
03F00E00
03F80E00
03F81C00
01F83800
01F83000
01FC7000
01FCE000
00FDC000
00FD8000
00FF8000
00FF0000
007E0000
007C0000
007C0000
78380000
FC700000
FC600000
FCE00000
FFC00000
7F800000
3E000000
ENDCHAR

STARTCHAR afii10145
ENCODING 175
SWIDTH 865 0
DWIDTH 33 0
BBX 37 36 -1 -7
BITMAP
01FFF9FFF8
01FFF9FFF8
003F803FC0
003F801F80
003F003F80
003F003F80
007F003F00
007F003F00
007E007F00
007E007E00
00FE007E00
00FE007E00
00FC00FE00
00FC00FC00
01FC00FC00
01FC01FC00
01F801FC00
01F801F800
03F801F800
03F803F800
03F003F800
03F003F000
07F003F000
07E007F000
07E007F000
07E007E000
0FE00FF000
7FFFFFFE00
FFFFFFFE00
003FE00000
001FC00000
000F800000
000F000000
000E000000
000E000000
000C000000
ENDCHAR

STARTCHAR afii10017
ENCODING 176
SWIDTH 802 0
DWIDTH 30 0
BBX 31 29 -3 0
BITMAP
00000700
00000F00
00000F00
00001F00
00003F00
00003F80
00007F80
00007F80
0000EF80
0001DF80
00018F80
00038FC0
00070FC0
00060FC0
000E0FC0
001C0FC0
001807C0
003807E0
007FFFE0
007FFFE0
00E007E0
01C007E0
01C007E0
038003F0
070003F0
0F0003F0
1F8003F8
7FF03FFE
FFE03FFE
ENDCHAR

STARTCHAR afii10018
ENCODING 177
SWIDTH 802 0
DWIDTH 30 0
BBX 32 29 0 0
BITMAP
01FFFFFF
03FFFFFE
003F807E
003F003E
003F001E
007F001C
007F001C
007E001C
007E001C
00FE0018
00FE0000
00FC0000
00FC0000
01FFFF00
01FFFFC0
01F80FF0
01F803F0
03F803F8
03F001F8
03F001F8
03F001F8
07F001F8
07E003F8
07E003F8
07E007F0
0FE00FE0
0FE03FC0
FFFFFF00
FFFFF800
ENDCHAR

STARTCHAR afii10019
ENCODING 178
SWIDTH 802 0
DWIDTH 30 0
BBX 30 29 -1 0
BITMAP
03FFFFC0
03FFFFF0
003F83F8
003F01FC
007F00FC
007F00FC
007E00FC
007E00FC
00FE01FC
00FC01F8
00FC03F8
00FC07F0
01FC1FC0
01FFF800
01FFFF00
01F80FC0
03F803F0
03F803F0
03F001F8
03F001F8
07F001F8
07F001F8
07E003F8
07E003F8
0FE007F0
0FE00FF0
1FE03FE0
FFFFFF80
FFFFFC00
ENDCHAR

STARTCHAR afii10020
ENCODING 179
SWIDTH 719 0
DWIDTH 27 0
BBX 31 29 0 0
BITMAP
03FFFFFE
03FFFFFE
007F00FE
007F007C
007F003C
007E003C
007E003C
00FE0018
00FC0038
00FC0038
00FC0000
01FC0000
01F80000
01F80000
01F80000
03F80000
03F00000
03F00000
03F00000
07F00000
07E00000
07E00000
07E00000
0FE00000
0FC00000
0FC00000
1FC00000
FFFC0000
FFFC0000
ENDCHAR

STARTCHAR afii10021
ENCODING 180
SWIDTH 813 0
DWIDTH 31 0
BBX 39 36 -4 -7
BITMAP
0003FFFFFE
0007FFFFFC
0000FC0FE0
0000700FE0
0000700FC0
0000E00FC0
0000E01FC0
0000E01F80
0000C01F80
0001C01F80
0001C03F80
0001803F00
0003803F00
0003807F00
0003007F00
0007007E00
0007007E00
000E00FE00
000E00FE00
001C00FC00
001C00FC00
003801FC00
007001F800
007001F800
00E001F800
01C003F800
060003F800
3FFFFFFF00
3FFFFFFF00
3E00003F00
7800000E00
7000000E00
7000000E00
6000000E00
E000000C00
E000000C00
ENDCHAR

STARTCHAR afii10022
ENCODING 181
SWIDTH 740 0
DWIDTH 28 0
BBX 30 29 0 0
BITMAP
03FFFFFC
03FFFFF8
007F00F8
007F0078
007F0078
007E0030
007E0030
00FE0030
00FC0C70
00FC0C00
00FC1C00
01FC3800
01F8F800
01FFF800
01FFF800
03F8F000
03F07000
03F07000
03F07000
07F06060
07E060E0
07E000C0
07E001C0
0FE003C0
0FC00780
0FC00F80
1FC03F80
FFFFFF80
FFFFFF00
ENDCHAR

STARTCHAR afii10024
ENCODING 182
SWIDTH 1177 0
DWIDTH 45 0
BBX 50 29 -3 0
BITMAP
00FC01FFF80F80
00FE03FFF01FC0
01FE007F803FC0
01FF003F003FC0
01FF003F007FC0
00F7007F006780
0003007E00C000
0003007E00C000
0003007E01C000
000300FE018000
000300FC030000
000380FC030000
000181FC060000
0000C1F81E0000
0001FFFFF80000
000FFDFFFE0000
001FC3F87E0000
003F83F03F0000
007F03F03F0000
007E03F01F8000
00FC07F01F8000
01FC07E01F8000
01F807E00F8000
03F807E00FC000
07F00FE00FC000
07E00FC007C000
1FE01FE007E000
7FC0FFFC07FC00
FF80FFFC07F800
ENDCHAR

STARTCHAR afii10025
ENCODING 183
SWIDTH 656 0
DWIDTH 25 0
BBX 25 29 0 0
BITMAP
001FF000
00FFFE00
01F07F00
01E01F80
03C01F80
03801F80
07001F80
06001F80
00003F80
00003F00
00007E00
0000FC00
0003F800
00FF0000
00FFC000
000FF000
0003F800
0001FC00
0001FC00
0001FC00
0001FC00
4001FC00
C003F800
E003F800
7007F000
381FE000
3FFFC000
0FFF0000
03F80000
ENDCHAR

STARTCHAR afii10026
ENCODING 184
SWIDTH 865 0
DWIDTH 33 0
BBX 37 29 -1 0
BITMAP
01FFF9FFF8
01FFF9FFF8
003F803FC0
003F801F80
003F003F80
003F007F00
003F00FF00
007F00FF00
007E01FF00
007E03BE00
007E077E00
00FE0E7E00
00FC1CFE00
00FC38FC00
00FC70FC00
01FCE0FC00
01F8E1FC00
01F9C1F800
03FB81F800
03F301F800
03FE03F800
03FC03F000
07F803F000
07F003F000
07E007F000
07E007E000
0FE00FF000
7FFE7FFE00
FFFC7FFE00
ENDCHAR

STARTCHAR afii10027
ENCODING 185
SWIDTH 865 0
DWIDTH 33 0
BBX 37 38 -1 0
BITMAP
0000601800
0000F03C00
0000F03C00
0000F03C00
0000F03800
00007FF000
00000FC000
0000000000
0000000000
01FFF1FFF8
03FFF3FFF0
007F803F80
003F003F80
007F003F00
007F007F00
007E00FF00
007E01FF00
00FE03FE00
00FE077E00
00FC0EFE00
00FC0EFE00
01FC1CFC00
01FC38FC00
01F871FC00
01F8E1FC00
03F9C1F800
03FB81F800
03F703F800
03F603F800
07FC03F000
07F807F000
07F807F000
07F007F000
0FE007E000
0FC00FE000
1FE00FE000
FFFCFFFE00
FFFCFFFC00
ENDCHAR

STARTCHAR afii10028
ENCODING 186
SWIDTH 844 0
DWIDTH 32 0
BBX 35 29 0 0
BITMAP
03FFF00F80
03FFF01FC0
007F003FE0
007F003FC0
007E007FC0
007E00E780
007E00C000
00FE01C000
00FC018000
00FC038000
00FC030000
01FC070000
01F80E0000
01F8340000
03FFF80000
03FFFE0000
03F07F0000
03F03F0000
07F01F0000
07F01F8000
07E01F8000
07E00F8000
0FE00F8000
0FE00FC000
0FC00FC000
0FC007E000
1FC007F000
FFFC07FC00
FFF807FC00
ENDCHAR

STARTCHAR afii10029
ENCODING 187
SWIDTH 865 0
DWIDTH 33 0
BBX 37 29 -1 0
BITMAP
000FFFFFF8
001FFFFFF8
0003F01F80
0001E01F80
0001C03F80
0001C03F00
0001C03F00
0001803F00
0003807F00
0003807E00
0003007E00
0007007E00
000700FE00
000600FC00
000E00FC00
000E00FC00
000C01F800
001C01F800
001801F800
003801F800
003803F000
003003F000
007003F000
7C6007F000
7EE007E000
FFC007E000
FF800FF000
7F007FFE00
3E007FFC00
ENDCHAR

STARTCHAR afii10030
ENCODING 188
SWIDTH 1031 0
DWIDTH 39 0
BBX 43 29 0 0
BITMAP
03FFC003FFE0
03FFC003FFC0
0037C0077E00
0037C006FC00
0077C00EFC00
0077C00DFC00
0067E01DF800
0067E039F800
00E7E031F800
00E7E073F800
00C7E063F000
00C7E0E3F000
01C7E1C3F000
01C7E1C7F000
0187E387E000
0183E307E000
0383E70FE000
0303F60FE000
0303F60FC000
0303FC0FC000
0703F81FC000
0603F81FC000
0603F01F8000
0603F01F8000
0E03E03F8000
1E03E03F8000
3F01C03F8000
FFE183FFF000
FFE183FFF000
ENDCHAR

STARTCHAR afii10031
ENCODING 189
SWIDTH 865 0
DWIDTH 33 0
BBX 37 29 -1 0
BITMAP
01FFF9FFF8
01FFF9FFF8
003F801FC0
003F803F80
003F003F80
003F003F00
007F003F00
007F003F00
007E007F00
007E007E00
00FE007E00
00FE007E00
00FC00FE00
00FFFFFC00
01FFFFFC00
01FC01FC00
01F801FC00
01F801F800
03F801F800
03F003F800
03F003F800
03F003F000
07F003F000
07E007F000
07E007F000
07E007E000
0FE00FF000
7FFE7FFE00
FFFC7FFC00
ENDCHAR

STARTCHAR afii10032
ENCODING 190
SWIDTH 823 0
DWIDTH 31 0
BBX 28 29 3 0
BITMAP
000FF800
003FFE00
00FC1F80
01F007C0
07E007E0
0FE003E0
0FC003F0
1FC003F0
3F8003F0
3F8003F0
7F0003F0
7F0007F0
7F0007F0
FF0007F0
FE0007F0
FE000FF0
FE000FE0
FE000FE0
FE000FE0
FC001FC0
FC001FC0
FC003F80
7C003F00
7C007F00
3E00FE00
3E01F800
1F83F000
07FFC000
01FF0000
ENDCHAR

STARTCHAR afii10033
ENCODING 191
SWIDTH 865 0
DWIDTH 33 0
BBX 37 29 -1 0
BITMAP
01FFFFFFF8
01FFFFFFF8
003F801FC0
003F803F80
003F003F80
003F003F00
007F003F00
007F007F00
007E007F00
007E007E00
00FE007E00
00FE00FE00
00FC00FE00
00FC00FC00
01FC00FC00
01F801FC00
01F801F800
03F801F800
03F801F800
03F003F800
03F003F000
07F003F000
07F003F000
07E007F000
07E007E000
0FE007E000
0FE00FE000
FFFE7FFE00
FFFCFFFC00
ENDCHAR

STARTCHAR afii10034
ENCODING 192
SWIDTH 771 0
DWIDTH 29 0
BBX 30 29 0 0
BITMAP
03FFFF80
03FFFFE0
007F03F0
007F01F8
007F01FC
007E00FC
007E00FC
00FE00FC
00FE01FC
00FC01FC
00FC01FC
01FC03F8
01F807F8
01F81FF0
01FFFFC0
03FFFF00
03F00000
03F00000
03F00000
07F00000
07E00000
07E00000
07E00000
0FE00000
0FC00000
0FC00000
1FC00000
FFFE0000
FFFE0000
ENDCHAR

STARTCHAR afii10035
ENCODING 193
SWIDTH 740 0
DWIDTH 28 0
BBX 27 29 3 0
BITMAP
0007FC00
003FFF00
00FE0FC0
01F803E0
03F001E0
07E001E0
0FE001E0
1FC000C0
1FC000C0
3F8000C0
3F8000C0
7F000000
7F000000
FF000000
FE000000
FE000000
FE000000
FE000000
FE000000
FE000000
FE000380
7F000700
7F000600
7F800E00
3F803C00
1FE07800
0FFFF000
03FFC000
00FF0000
ENDCHAR

STARTCHAR afii10036
ENCODING 194
SWIDTH 750 0
DWIDTH 29 0
BBX 29 29 3 0
BITMAP
0FFFFFF8
1FFFFFF0
1F8FE1F0
1E0FC0F0
3C0FC0F0
380FC0E0
381FC0E0
701F80E0
701F80E0
E01F80C0
003F8000
003F0000
003F0000
003F0000
007F0000
007E0000
007E0000
007E0000
00FE0000
00FC0000
00FC0000
01FC0000
01FC0000
01F80000
01F80000
03F80000
03F80000
7FFF8000
7FFF8000
ENDCHAR

STARTCHAR afii10037
ENCODING 195
SWIDTH 781 0
DWIDTH 30 0
BBX 32 29 3 0
BITMAP
3FFE1FFF
3FFC1FFE
0FF001F0
07E000E0
07E001C0
07F00380
03F00380
03F00700
03F00E00
03F80C00
01F81C00
01F83800
01F87000
01FC7000
01FCE000
00FDC000
00FD8000
00FF8000
00FF0000
007E0000
007C0000
007C0000
78380000
FC700000
FC700000
FCE00000
FFC00000
7F800000
3E000000
ENDCHAR

STARTCHAR afii10038
ENCODING 196
SWIDTH 990 0
DWIDTH 38 0
BBX 34 29 3 0
BITMAP
0007FFF000
000FFFF000
0000FF0000
00007E0000
003FFFF000
01FFFFFE00
07F0FC3F00
0FE0FC1F80
1FC1FC1FC0
3F81FC0FC0
7F01F80FC0
7F01F80FC0
FE03F80FC0
FE03F01FC0
FE03F01FC0
FE03F01FC0
FC07F03F80
FC07E03F80
FC07E03F80
FC0FE07F00
7E0FE0FE00
7E0FC1FC00
3F8FCFF800
0FFFFFE000
03FFFE0000
001F800000
003FC00000
03FFFC0000
03FFF80000
ENDCHAR

STARTCHAR afii10039
ENCODING 197
SWIDTH 823 0
DWIDTH 31 0
BBX 37 29 -2 0
BITMAP
01FFFC3FF8
01FFF87FF8
001FC00FC0
001FC00F80
000FC00F00
000FE01E00
0007E03800
0007F07000
0003F0E000
0003FBC000
0001FB8000
0001FF0000
0000FE0000
0000FC0000
0000FE0000
0000FE0000
0001FF0000
0007BF0000
000F3F8000
001E1F8000
00381FC000
00700FC000
00E00FC000
01C007E000
03C007E000
0FC007F000
1FC007F800
FFF83FFF00
FFF87FFE00
ENDCHAR

STARTCHAR afii10040
ENCODING 198
SWIDTH 865 0
DWIDTH 33 0
BBX 38 35 -1 -6
BITMAP
01FFF9FFFC
01FFF9FFF8
003F803FC0
003F801F80
003F003F80
003F003F80
003F003F00
007F003F00
007E007F00
007E007F00
007E007E00
00FE007E00
00FC00FE00
00FC00FC00
01FC00FC00
01FC01FC00
01F801FC00
01F801F800
03F801F800
03F803F800
03F003F800
03F003F000
07F003F000
07F007F000
07E007F000
07E007F000
0FE007F000
7FFFFFFF00
FFFFFFFE00
0000003E00
0000001E00
0000001E00
0000001C00
0000001C00
0000001C00
ENDCHAR

STARTCHAR afii10041
ENCODING 199
SWIDTH 823 0
DWIDTH 31 0
BBX 31 29 4 0
BITMAP
7FFE7FFE
FFFCFFFE
0FE00FE0
0FC00FE0
0FC00FC0
1FC00FC0
1F801FC0
1F801F80
1F801F80
3F801F80
3F003F80
3F003F00
3F003F00
3F00FF00
3F83FF00
3FFFFE00
1FFF7E00
0FFC7E00
03E0FE00
0000FC00
0000FC00
0001FC00
0001FC00
0001F800
0001F800
0003F800
0003F800
001FFF00
003FFF00
ENDCHAR

STARTCHAR afii10042
ENCODING 200
SWIDTH 1240 0
DWIDTH 47 0
BBX 51 29 0 0
BITMAP
03FFE3FFE3FFE0
03FFE3FFC7FFC0
007F00FF00FE00
007F007E00FC00
007E00FE00FC00
007E00FE00FC00
007E00FC01FC00
00FE00FC01F800
00FC01FC01F800
00FC01FC01F800
01FC01F803F800
01FC01F803F000
01F803F803F000
01F803F007F000
03F803F007F000
03F803F007E000
03F007F007E000
03F007E00FE000
07F007E00FC000
07F00FE00FC000
07E00FE00FC000
07E00FC01FC000
0FE00FC01F8000
0FE01FC01F8000
0FC01FC01F8000
0FC01F803F8000
1FC01F803F8000
FFFFFFFFFFF000
FFFFFFFFFFF000
ENDCHAR

STARTCHAR afii10043
ENCODING 201
SWIDTH 1240 0
DWIDTH 47 0
BBX 51 35 0 -6
BITMAP
03FFE3FFE3FFE0
03FFE3FFC7FFE0
007F00FF00FE00
007F007E00FE00
007E00FE00FC00
007E00FE00FC00
007E00FC01FC00
00FE00FC01F800
00FC01FC01F800
00FC01FC01F800
01FC01F803F800
01FC01F803F000
01F803F803F000
01F803F003F000
03F803F007F000
03F803F007E000
03F007F007E000
03F007E00FE000
07F007E00FE000
07F00FE00FC000
07E00FE00FC000
07E00FC01FC000
0FE00FC01FC000
0FE01FC01F8000
0FC01FC01F8000
0FC01F803F8000
1FC01F803FC000
FFFFFFFFFFFC00
FFFFFFFFFFF800
0000000001F800
00000000007800
00000000007000
00000000007000
00000000007000
00000000006000
ENDCHAR

STARTCHAR afii10044
ENCODING 202
SWIDTH 938 0
DWIDTH 36 0
BBX 31 29 3 0
BITMAP
0FFFFE00
1FFFFC00
1F0FE000
1E0FC000
3C0FC000
381FC000
701F8000
701F8000
E01F8000
003F8000
003F0000
003F0000
003F0000
007FFFC0
007FFFF0
007E03FC
007E00FC
00FE00FE
00FC007E
00FC007E
01FC007E
01FC00FE
01F800FE
01F800FE
03F801FC
03F803F8
03F80FF0
3FFFFFE0
3FFFFF00
ENDCHAR

STARTCHAR afii10045
ENCODING 203
SWIDTH 1240 0
DWIDTH 47 0
BBX 51 29 0 0
BITMAP
03FFF8000FFFE0
03FFF0000FFFE0
003F800000FE00
003F000000FC00
003F000000FC00
007F000001FC00
007E000001FC00
007E000001F800
007E000001F800
00FE000003F800
00FC000003F000
00FC000003F000
00FFFF0003F000
01FFFFC007F000
01F80FE007E000
01F803F007E000
03F803F80FE000
03F001F80FE000
03F001F80FC000
03F001F80FC000
07F001F81FC000
07E003F81FC000
07E003F81F8000
07E007F01F8000
0FE007F03F8000
0FE00FE03F8000
1FE07FC07F8000
FFFFFF83FFF800
FFFFFC03FFF800
ENDCHAR

STARTCHAR afii10046
ENCODING 204
SWIDTH 802 0
DWIDTH 30 0
BBX 29 29 0 0
BITMAP
03FFF800
03FFF000
003F8000
003F0000
003F0000
007F0000
007E0000
007E0000
007E0000
00FE0000
00FC0000
00FC0000
00FC0000
01FFFF00
01FFFFC0
01F80FF0
01F803F0
03F803F8
03F001F8
03F001F8
03F001F8
07F003F8
07E003F8
07E003F8
0FE007F0
0FE00FE0
0FE03FC0
FFFFFF80
FFFFFC00
ENDCHAR

STARTCHAR afii10047
ENCODING 205
SWIDTH 740 0
DWIDTH 28 0
BBX 27 29 1 0
BITMAP
003FF000
01FFFC00
07F07E00
0FC01F00
0F801F80
0F000FC0
1E000FC0
1C000FC0
1C000FE0
1C000FE0
00000FE0
00000FE0
00000FE0
001FFFE0
003FFFE0
003FFFC0
00001FC0
00001FC0
00003F80
00003F80
C0007F00
C0007F00
E000FE00
6001FC00
7003F800
3C0FF000
1FFFC000
0FFF8000
01F80000
ENDCHAR

STARTCHAR afii10048
ENCODING 206
SWIDTH 1135 0
DWIDTH 43 0
BBX 43 30 0 0
BITMAP
00000007F800
03FFE03FFE00
03FFE07E1F00
007F00F80F80
007E01F007C0
007E03F007C0
007E07E007C0
00FC0FE007E0
00FC0FC007E0
00FC1FC007E0
00FC1FC007E0
01F83F8007E0
01F83F800FE0
01F83F800FE0
01FFFF000FE0
03FFFF000FC0
03F07F001FC0
03F07F001FC0
03F07E001FC0
07E07E001F80
07E07E003F80
07E07E003F00
07E07E003F00
0FC03E007E00
0FC03E007C00
0FC03E00F800
1FC01F01F000
1FC00F87E000
FFF807FF8000
FFF801FE0000
ENDCHAR

STARTCHAR afii10049
ENCODING 207
SWIDTH 844 0
DWIDTH 32 0
BBX 37 29 -1 0
BITMAP
0001FFFFF8
0007FFFFF0
000FF03F80
001FC03F00
003F807F00
003F807F00
007F007E00
007F007E00
007F00FE00
007F00FE00
003F00FC00
003F00FC00
001F81FC00
000FC1F800
0003FFF800
000FFDF800
001FC3F800
003F83F000
007F03F000
00FE03F000
00FE07F000
01FC07E000
03F807E000
03F807E000
07F00FE000
0FF00FC000
1FE01FE000
7FC0FFFC00
FFC0FFFC00
ENDCHAR

STARTCHAR afii10065
ENCODING 208
SWIDTH 667 0
DWIDTH 25 0
BBX 23 21 1 0
BITMAP
00F804
03FC7C
07FEFC
0FE778
1FC3F8
1F81F8
3F01F8
3F01F0
7E01F0
7E03F0
7E03E0
FC03E0
FC07E0
FC07E0
FC07C0
FC0FC6
FC1FCC
7E7F98
7FEFF0
3FCFE0
1F07C0
ENDCHAR

STARTCHAR afii10066
ENCODING 209
SWIDTH 594 0
DWIDTH 23 0
BBX 24 29 1 0
BITMAP
000007
003FFF
00FFFE
01FFFC
03FFF0
07E000
0F0000
0E0000
1C7F00
19FFC0
3BC3E0
3781E0
2701F0
6F01F0
7E01F0
7E01F0
FE03F0
FC03F0
FC03F0
FC07F0
F807E0
F807E0
F80FE0
F80FC0
781F80
781F00
3C3E00
1FFC00
07E000
ENDCHAR

STARTCHAR afii10067
ENCODING 210
SWIDTH 563 0
DWIDTH 21 0
BBX 19 21 1 0
BITMAP
007F00
01FFC0
07C3E0
0F83E0
1F03E0
3F07E0
3E07C0
7E0F80
7E3E00
FCF800
FFFE00
FE1F80
FC0F80
F80FC0
F80FC0
F80FC0
F80FC0
7C1F80
3C3F00
1FFE00
07F000
ENDCHAR

STARTCHAR afii10068
ENCODING 211
SWIDTH 500 0
DWIDTH 19 0
BBX 18 21 1 0
BITMAP
00FF00
03FF80
071FC0
1C0FC0
000FC0
000FC0
000F80
001F00
007E00
00F800
03E000
0F8000
3E0000
7E0000
7C0000
FC0000
FC0700
FC0E00
7E3C00
7FF000
1FC000
ENDCHAR

STARTCHAR afii10069
ENCODING 212
SWIDTH 594 0
DWIDTH 23 0
BBX 21 30 1 0
BITMAP
00F800
00FF00
000F80
0003C0
0001E0
0001F0
0000F0
0000F0
0000F8
01FCF8
07FEF8
0FC778
1F83F8
3F81F8
3F01F8
7F01F8
7E01F8
FE01F8
FC03F0
FC03F0
FC03F0
FC07F0
F807E0
F807E0
F80FC0
780F80
7C1F00
3C3E00
1FFC00
07E000
ENDCHAR

STARTCHAR afii10070
ENCODING 213
SWIDTH 500 0
DWIDTH 19 0
BBX 18 21 1 0
BITMAP
007E00
01FF80
07C780
0F87C0
1F07C0
1F07C0
3E0FC0
7E0F80
7E1F00
7C3E00
FC7C00
FDF000
FF8000
FC0000
FC0000
FC0000
FC0700
7E1E00
3FFC00
3FF000
0FC000
ENDCHAR

STARTCHAR afii10072
ENCODING 214
SWIDTH 1146 0
DWIDTH 44 0
BBX 43 21 0 0
BITMAP
00F803E03F00
03FE03C0FFC0
07FF07C1E3C0
0E1F07C3C3E0
381F8787C3E0
000F8F8F83E0
000F8F8F81C0
000F8F9F0000
000F8F1F0000
000FFFFF0000
000FFFFE0000
001F1E3E0000
001F3E3E0000
001E3E3E0000
703E3E3E0000
F83C3C3E0000
F87C7C3F0780
F8787C1F8E00
79F07C1FFC00
3FE0780FF800
0F00F803E000
ENDCHAR

STARTCHAR afii10073
ENCODING 215
SWIDTH 542 0
DWIDTH 21 0
BBX 19 21 1 0
BITMAP
01FF00
07FFC0
0F87E0
0F03E0
0E03E0
1C03E0
0007C0
0007C0
001F00
00F800
00FE00
001F80
000F80
700FC0
F80FC0
F80FC0
F81F80
F01F80
783F00
3FFC00
07E000
ENDCHAR

STARTCHAR afii10074
ENCODING 216
SWIDTH 677 0
DWIDTH 26 0
BBX 22 21 3 0
BITMAP
7FC0FC
7FC0F8
1F81F8
0F81F8
1F81F0
1F03F0
1F03F0
3F03E0
3E07E0
3E07E0
7E07C0
7C07C0
7C0FC0
7C1F80
FC3F80
F87F8C
F8EF18
FFDF30
FF9FE0
7E1FC0
380F00
ENDCHAR

STARTCHAR afii10075
ENCODING 217
SWIDTH 677 0
DWIDTH 26 0
BBX 22 28 3 0
BITMAP
007860
007CC0
003F80
001F00
000000
000000
000000
7FC0FC
7FC0F8
1F81F8
0F81F0
1F81F0
1F03F0
1F03F0
3F03E0
3E07E0
3E07E0
7E07C0
7C07C0
7C0FC0
7C1F80
FC3F80
F87F8C
F8EF18
FFDF30
FF9FE0
7E1FC0
380F00
ENDCHAR

STARTCHAR afii10076
ENCODING 218
SWIDTH 646 0
DWIDTH 25 0
BBX 24 21 1 0
BITMAP
3FE01E
3FE03F
0FE07F
07C0FF
07C1C6
0FC180
0F8300
0F8300
1F8C00
1FFE00
1FFF00
1F1F00
3F1F80
3F0F80
3E0F80
7E0FC0
7E0FC0
7C07C0
7C07E0
FC07F8
FC07F0
ENDCHAR

STARTCHAR afii10077
ENCODING 219
SWIDTH 708 0
DWIDTH 27 0
BBX 27 21 -1 0
BITMAP
007FFFC0
007FFFC0
001F0FC0
000E0F80
000C1F80
001C1F80
00181F00
00181F00
00303F00
00303E00
00303E00
00607E00
00607E00
00E07C00
00C07C00
00C0FC60
7180F8C0
FB80F980
FF00FF00
FE00FE00
7C007800
ENDCHAR

STARTCHAR afii10078
ENCODING 220
SWIDTH 948 0
DWIDTH 36 0
BBX 36 21 -1 0
BITMAP
00FFE01FE0
00FDE01BE0
001BE03BC0
001BE037C0
001BE06FC0
001BE0EF80
0033E0CF80
0033E18F80
0033E39F80
0033E31F00
0063E71F00
0063E63F00
0063EC3F00
00C3EC3E00
00C3F83E00
00C3F07E30
7183F07C60
FB83E07CC0
FF03E07F80
FE03C07F00
7C03803C00
ENDCHAR

STARTCHAR afii10079
ENCODING 221
SWIDTH 688 0
DWIDTH 26 0
BBX 24 21 1 0
BITMAP
3FE03E
3FE07E
07E07C
07C07C
07C0FC
0FC0FC
0FC0F8
0F80F8
0F81F8
1FFFF0
1FFFF0
1F03F0
3F03F0
3F03E0
3E03E0
3E07E3
7E07C6
7C07CC
7C07F8
FC07F0
FC03E0
ENDCHAR

STARTCHAR afii10080
ENCODING 222
SWIDTH 594 0
DWIDTH 23 0
BBX 20 21 1 0
BITMAP
007E00
03FF80
07C3C0
0F83E0
1F01F0
3F01F0
7F01F0
7E01F0
7E03F0
FC03F0
FC03F0
FC03F0
FC07E0
F807E0
F807E0
F80FC0
780F80
7C1F00
3C3E00
1FFC00
07E000
ENDCHAR

STARTCHAR afii10081
ENCODING 223
SWIDTH 677 0
DWIDTH 26 0
BBX 24 21 1 0
BITMAP
1FE0F8
3FE3FC
07E7FC
07CE7C
07DC7C
07D0FC
0FE0FC
0FC0F8
0FC1F8
0F81F8
1F81F0
1F03F0
1F03F0
3F03E0
3F03E0
3E07E3
3E07C6
7E07CC
7C07F8
7C07F0
FC03C0
ENDCHAR

STARTCHAR afii10082
ENCODING 224
SWIDTH 646 0
DWIDTH 25 0
BBX 27 28 -3 -7
BITMAP
01FF1F00
03FF7F80
007EFFC0
007FCFC0
007F07E0
007E07E0
007C07E0
00FC07E0
00FC07E0
00F807E0
00F80FC0
01F80FC0
01F00FC0
01F01F80
03F01F80
03F03F00
03F87F00
03ECFE00
07EFFC00
07CFF800
07C3E000
0FC00000
0FC00000
0F800000
0F800000
1F800000
FFF80000
FFF80000
ENDCHAR

STARTCHAR afii10083
ENCODING 225
SWIDTH 510 0
DWIDTH 19 0
BBX 19 21 1 0
BITMAP
003E00
01FF80
07E3C0
0F83E0
1F83E0
1F03E0
3F01C0
3E0000
7E0000
7C0000
7C0000
FC0000
FC0000
FC0000
FC0000
FC0000
7C0780
7E0E00
3FFC00
1FF000
07C000
ENDCHAR

STARTCHAR afii10084
ENCODING 226
SWIDTH 958 0
DWIDTH 36 0
BBX 34 21 1 0
BITMAP
07E0F01E00
3FE3F87F00
0FC7F8FF00
07CEF9DF00
07D8FB1F00
0FD1FE3F00
0FE1FC3F00
0FC1F83E00
1F81F07E00
1F83F07E00
1F03F07C00
1F03E07C00
3F07E0FC00
3E07E0FC00
3E07C0F800
7E07C1F8C0
7E0FC1F980
7C0FC1F300
7C0F81FE00
FC0F81FC00
F81F80F000
ENDCHAR

STARTCHAR afii10085
ENCODING 227
SWIDTH 531 0
DWIDTH 20 0
BBX 22 28 -2 -7
BITMAP
01C030
03F07C
07F07C
07F07C
0CF83C
0CF83C
18F81C
00F818
00FC18
007C38
007C30
007C70
007C60
007CC0
007CC0
007D80
003F80
003F00
003E00
003C00
003800
003800
007000
F0E000
F9C000
FF8000
FE0000
7C0000
ENDCHAR

STARTCHAR afii10086
ENCODING 228
SWIDTH 833 0
DWIDTH 32 0
BBX 30 36 1 -7
BITMAP
000003F0
00000FFC
00001E7C
00003C3C
00007C3C
00007800
0000F800
0000F800
00F1F9E0
03F9F7F0
07FDF7F8
0FCFFCFC
1F87F07C
1F03E07C
3F03E07C
3E07C07C
7E07C0FC
7C07C0FC
7C0FC0F8
FC0F80F8
FC0F81F8
F80F81F0
F81F01F0
F81F83E0
F83F87E0
FCFF47C0
7FDEFF80
3FBE7F00
1E3E3E00
007C0000
007C0000
78780000
78F00000
FDE00000
7FC00000
3F000000
ENDCHAR

STARTCHAR afii10087
ENCODING 229
SWIDTH 615 0
DWIDTH 23 0
BBX 24 21 -1 0
BITMAP
01E01E
03F83F
07F87F
0EFCEF
0C7CC6
187D80
007F00
003F00
003E00
003F00
001F00
001F00
003F80
006F80
00EF80
00CF86
718FC6
7F07CC
FF07FC
7E03F0
3801E0
ENDCHAR

STARTCHAR afii10088
ENCODING 230
SWIDTH 677 0
DWIDTH 26 0
BBX 22 27 3 -6
BITMAP
7FC0FC
7FC0F8
1F81F8
0F81F0
1F81F0
1F03F0
1F03F0
3F03E0
3E07E0
3E07E0
7E07C0
7C07C0
7C0FC0
7C1F80
FC3F80
F87F8C
F8EF18
FFDF28
FF9FF8
7E1FD0
380F30
000070
0000F0
0000F0
0000E0
0007E0
000780
ENDCHAR

STARTCHAR afii10089
ENCODING 231
SWIDTH 646 0
DWIDTH 25 0
BBX 23 21 1 0
BITMAP
7FC07C
FF80FC
1F80FC
1F80F8
1F01F8
1F01F8
3F01F0
3F01F0
3E03F0
3F0FE0
3FFFE0
1FF7E0
0F87E0
0007C0
000FC0
000FC6
000F8C
000F98
000FF0
000FE0
000780
ENDCHAR

STARTCHAR afii10090
ENCODING 232
SWIDTH 948 0
DWIDTH 36 0
BBX 33 21 2 0
BITMAP
7FC0F81F80
7FC1F81F00
0FC1F83F00
0F81F03F00
1F83F03E00
1F83F07E00
1F03E07E00
3F03E07C00
3F07E0FC00
3E07E0FC00
3E07C0F800
7E0FC0F800
7C0FC1F800
7C1F83F000
FC3F87F000
FC7F8FF180
F8EF1DE300
FBDFFBE600
FF1FF3FC00
FE1FC3F800
7C0F81E000
ENDCHAR

STARTCHAR afii10091
ENCODING 233
SWIDTH 948 0
DWIDTH 36 0
BBX 33 27 2 -6
BITMAP
7FC0FC1F80
7FC1F81F00
0FC1F83F00
0F81F03F00
1F83F03E00
1F83F07E00
1F03E07E00
3F07E07C00
3F07E07C00
3E07E0FC00
3E07C0F800
7E0FC0F800
7C0FC1F800
7C1F83F000
FC3F87F000
FC7F8FF180
F8EF1DF300
FBDF7BE500
FF1FE3FF00
FE1FC3FA00
7C0F80E600
0000000E00
0000001E00
0000001E00
0000001C00
0000007C00
000000F000
ENDCHAR

STARTCHAR afii10092
ENCODING 234
SWIDTH 646 0
DWIDTH 25 0
BBX 22 21 1 0
BITMAP
1F8E00
3FFC00
7FFC00
E7D800
003800
007000
00F000
01CFC0
039FF0
07F0F8
0FE0F8
0FC0FC
1FC0FC
1F80FC
1F80FC
1F81F8
0F81F8
0F83F0
0787E0
03FF80
00FC00
ENDCHAR

STARTCHAR afii10093
ENCODING 235
SWIDTH 917 0
DWIDTH 35 0
BBX 31 22 2 0
BITMAP
00400004
7FC007FC
7F800FFC
0F8000F8
0F8000F8
1F0001F8
1F0001F8
1F0001F0
3E7E01F0
3EFF83F0
3F87C3E0
7F07C3E0
7E07E7E0
7E07E7E0
FC07E7C0
FC07E7C6
FC0FCFC6
FC0FCFCC
7C1F8F98
7C3F0FF8
3FFC0FE0
07E003C0
ENDCHAR

STARTCHAR afii10094
ENCODING 236
SWIDTH 604 0
DWIDTH 23 0
BBX 19 22 2 0
BITMAP
004000
FF8000
FF8000
1F8000
1F8000
1F0000
1F0000
3F0000
3E7E00
3FFF80
7F87C0
7F07C0
7E07E0
7E07E0
FC07E0
FC07E0
FC0FC0
FC0FC0
7C1F80
7C3F00
3FFC00
07E000
ENDCHAR

STARTCHAR afii10095
ENCODING 237
SWIDTH 521 0
DWIDTH 20 0
BBX 19 21 0 0
BITMAP
00FE00
03FF80
0707C0
1C07C0
3803E0
0003E0
0003E0
0003E0
0007E0
01FFE0
03FFE0
0007E0
000FC0
000FC0
701F80
F81F80
F83F00
F87E00
78FC00
3FF000
0FC000
ENDCHAR

STARTCHAR afii10096
ENCODING 238
SWIDTH 885 0
DWIDTH 34 0
BBX 32 21 0 0
BITMAP
07F00FE0
3FE03FF8
07E0FC3C
07E1F83E
07E1F01F
07C3F01F
07C7E01F
0FC7E01F
0F87E03F
0FFFC03F
1FFFC03F
1F0FC03F
1F0FC07F
1F0F807E
3F0F80FE
3E0F80FC
3E0780F8
7E07C1F0
7E03C3E0
7C01FFC0
FC007E00
ENDCHAR

STARTCHAR afii10097
ENCODING 239
SWIDTH 667 0
DWIDTH 25 0
BBX 26 21 -2 0
BITMAP
001FFF80
007FFF80
00FE1F80
01F81F00
01F81F00
03F03F00
03F03E00
03F03E00
01F07E00
00F87C00
001FFC00
00FFFC00
01F8FC00
03F0F800
03E0F800
07C1F8C0
0FC1F180
0F81F300
1F81FE00
7F01FC00
FF00F000
ENDCHAR

STARTCHAR afii61352
ENCODING 240
SWIDTH 1115 0
DWIDTH 42 0
BBX 43 29 -1 0
BITMAP
00000001F000
007FE003F800
00FFE007F800
000FE00FF800
0007F00EF800
000FF01C2000
000FF0180000
000DF8180000
001DF8383F80
001DF830FBC0
0019F831E1E0
0019FC71E1E0
0038FC73C1E0
0030FC63C1E0
0030FE67C3E0
00707EE7C3E0
00707EC783C0
00607F4787C0
00607FC78780
00E03FC38F80
00C03F83DF00
00C03F80FC00
01C01F800000
71C01F800000
FD801F000000
FF801F000000
FF000F0FFE00
FF000F0FFC00
3E000E0FFC00
ENDCHAR

STARTCHAR afii10071
ENCODING 241
SWIDTH 500 0
DWIDTH 19 0
BBX 19 29 1 0
BITMAP
0381C0
07C3E0
07C3E0
07C3E0
0381C0
000000
000000
000000
007E00
01FF80
07C780
0F87C0
1F07C0
1F07C0
3E0FC0
7E0F80
7E1F00
7C3E00
FC7C00
FDF000
FF8000
FC0000
FC0000
FC0000
FC0700
7E1E00
3FFC00
3FF000
0FC000
ENDCHAR

STARTCHAR afii10099
ENCODING 242
SWIDTH 635 0
DWIDTH 24 0
BBX 22 35 1 -6
BITMAP
0FFC00
0FF800
01F800
01F000
1FFFF0
1FFFF0
03F000
03E000
03E1F0
07E3F8
07E7FC
07DEFC
0FD8FC
0FF0FC
0FE0FC
0FC0F8
1F81F8
1F01F8
1F01F8
3F03F0
3F03F0
3E03E0
3E07E0
7E07E0
7C07C0
7C0FC0
FC0F80
FC0F80
F81F00
001F00
003E00
003C00
007800
00F000
03C000
ENDCHAR

STARTCHAR afii10100
ENCODING 243
SWIDTH 563 0
DWIDTH 21 0
BBX 24 30 -1 0
BITMAP
000018
00007C
00007C
0000F8
0001F0
0003C0
000200
000000
000000
07FFFF
07FFFF
00FC1E
00F80E
00F806
01F806
01F80C
01F000
03F000
03F000
03E000
03E000
07E000
07E000
07C000
0FC000
0FC000
0F8000
1FC000
7FF800
FFF000
ENDCHAR

STARTCHAR afii10101
ENCODING 244
SWIDTH 510 0
DWIDTH 19 0
BBX 19 21 1 0
BITMAP
003E00
01FF80
03E3C0
0F83E0
1F83E0
1F03E0
3F01C0
3E0000
7E0000
7FF800
7FF800
FC0000
FC0000
FC0000
FC0000
FC0000
7C0780
7E0E00
3FFC00
1FF000
07C000
ENDCHAR

STARTCHAR afii10102
ENCODING 245
SWIDTH 500 0
DWIDTH 19 0
BBX 18 21 1 0
BITMAP
00FC00
03FF00
0F8780
0F07C0
1F07C0
1F0380
1F8000
1FC000
0FF000
07F800
03FC00
01FE00
00FF00
007F00
703F00
F01F00
F81F00
F81E00
7C3C00
3FF800
0FC000
ENDCHAR

STARTCHAR afii10103
ENCODING 246
SWIDTH 396 0
DWIDTH 15 0
BBX 11 30 3 0
BITMAP
0180
07E0
07E0
07E0
07E0
0180
0000
0000
0000
7FC0
FFC0
0F80
0F80
1F80
1F80
1F00
1F00
3F00
3E00
3E00
7E00
7E00
7C00
FC60
FC60
F8C0
F980
FF00
FE00
7800
ENDCHAR

STARTCHAR afii10104
ENCODING 247
SWIDTH 396 0
DWIDTH 15 0
BBX 14 29 3 0
BITMAP
1C38
3E7C
3E7C
3E7C
1C38
0000
0000
0000
7FC0
FFC0
1F80
0F80
1F80
1F80
1F00
1F00
3F00
3E00
3E00
7E00
7E00
7C00
7C00
FC60
F8C0
F980
FF00
FE00
7800
ENDCHAR

STARTCHAR afii10105
ENCODING 248
SWIDTH 396 0
DWIDTH 15 0
BBX 19 36 -5 -7
BITMAP
000180
0007E0
0007E0
0007E0
0007E0
000180
000000
000000
000020
007FC0
007FC0
000FC0
000FC0
000F80
000F80
001F80
001F80
001F00
001F00
003F00
003F00
003E00
003E00
007E00
007E00
007C00
007C00
007C00
00FC00
00F800
00F800
F0F000
F9F000
F9E000
7F8000
3F0000
ENDCHAR

STARTCHAR afii10106
ENCODING 249
SWIDTH 969 0
DWIDTH 37 0
BBX 36 21 -1 0
BITMAP
007FFFE000
007FFFC000
000F0FC000
000E0FC000
001C0F8000
001C1F8000
00181F8000
00181F3F00
00303FFFC0
00303FC7E0
00303F83E0
00603F03F0
00607E03F0
00E07E03F0
00C07E07F0
00C07C07E0
71807C0FE0
FB807C0FC0
FF003E1F80
FE001FFE00
7C0007F000
ENDCHAR

STARTCHAR afii10107
ENCODING 250
SWIDTH 917 0
DWIDTH 35 0
BBX 32 21 1 0
BITMAP
0FE07E00
3FE07C00
0FC07C00
07C0FC00
0FC0F800
0FC0F800
0F81F800
1F81FBF0
1F81FFFC
1FFFFC7E
1FFFF83E
3F03F03F
3E03F03F
3E07E03F
7E07E03F
7E07E07E
7C07E07E
7C03E0FC
FC03E1F8
FC01FFE0
F8007F00
ENDCHAR

STARTCHAR afii10108
ENCODING 251
SWIDTH 677 0
DWIDTH 26 0
BBX 24 29 1 0
BITMAP
07FC00
07FC00
00F800
00F800
0FFFF8
1FFFF0
01F000
03F000
03F0F8
03E3FC
07E7FC
07EE7C
07DC7C
07F0FC
0FE0FC
0FC0F8
0F81F8
1F81F8
1F81F0
1F01F0
1F03F0
3F03E0
3E03E0
3E07E3
7E07C6
7E07CC
7C07F8
FC07F0
FC03E0
ENDCHAR

STARTCHAR afii10109
ENCODING 252
SWIDTH 646 0
DWIDTH 25 0
BBX 24 29 1 0
BITMAP
000078
0000F8
0001F8
0003E0
0003C0
000600
000000
000000
3FE01E
3FE03F
0FE07F
07C0FF
07C1C6
0FC180
0F8300
0F8300
1F8C00
1FFE00
1FFF00
1F1F00
3F1F80
3F0F80
3E0F80
7E0FC0
7E0FC0
7C07C0
7C07E0
FC07F8
FC07F0
ENDCHAR

STARTCHAR section
ENCODING 253
SWIDTH 552 0
DWIDTH 21 0
BBX 20 36 1 -7
BITMAP
001F80
007FE0
00F1F0
01E0F0
03E0F0
03E0F0
03F040
03F000
01F800
01FC00
00FC00
01FE00
07FF00
0F3F00
1E3F80
1E1F80
3E0FC0
3E0FC0
3F07C0
3F07C0
1F8780
1FC780
0FCF00
0FFE00
07F800
03F000
01F800
01F800
00FC00
007C00
F07C00
F07C00
F07800
F8F000
7FE000
1F8000
ENDCHAR

STARTCHAR afii10110
ENCODING 254
SWIDTH 531 0
DWIDTH 20 0
BBX 22 34 -2 -7
BITMAP
001C18
001E70
001FE0
000FC0
000000
000000
01C030
03F078
07F07C
07F07C
0CF83C
0CF83C
18F81C
00F818
00FC18
007C38
007C30
007C70
007C60
007CC0
007CC0
007D80
003F80
003F00
003E00
003C00
003800
003800
007000
F0E000
F9C000
FF8000
FE0000
7C0000
ENDCHAR

STARTCHAR afii10193
ENCODING 255
SWIDTH 677 0
DWIDTH 26 0
BBX 24 27 1 -6
BITMAP
3FF03F
3FE03E
0FE07E
07C07E
0FC07C
0FC0FC
0F80FC
1F80F8
1F81F8
1F01F8
3F01F0
3F01F0
3E03F0
3E07E0
7E0FE0
7E1FE3
7C3BC6
7EE7CC
7FC7F8
3F87F0
0E03C0
3C0000
380000
380000
380000
F00000
400000
ENDCHAR
ENDFONT
